<mxfile host="Electron" agent="Mozilla/5.0 (Windows NT 10.0; Win64; x64) AppleWebKit/537.36 (KHTML, like Gecko) draw.io/26.0.9 Chrome/128.0.6613.186 Electron/32.2.5 Safari/537.36" border="50" scale="3" compressed="false" locked="false" version="26.0.9">
  <diagram name="Blank" id="YmL12bMKpDGza6XwsDPr">
    <mxGraphModel dx="4840" dy="2607" grid="0" gridSize="10" guides="1" tooltips="1" connect="1" arrows="1" fold="1" page="0" pageScale="1" pageWidth="827" pageHeight="1169" background="none" math="1" shadow="0">
      <root>
        <mxCell id="X5NqExCQtvZxIxQ7pmgY-0" />
        <mxCell id="1" parent="X5NqExCQtvZxIxQ7pmgY-0" />
        <UserObject label="C++" link="https://leetcode.cn/circle/discuss/SqopEo/" id="KZ37n1IrzKlXpWWZrorU-3">
          <mxCell style="swimlane;startSize=20;horizontal=1;containerType=tree;" parent="1" vertex="1">
            <mxGeometry x="-2052" y="-981" width="2369" height="917.5" as="geometry">
              <mxRectangle x="-158" y="-131" width="84" height="26" as="alternateBounds" />
            </mxGeometry>
          </mxCell>
        </UserObject>
        <mxCell id="KZ37n1IrzKlXpWWZrorU-4" value="" style="edgeStyle=entityRelationEdgeStyle;startArrow=none;endArrow=none;segment=10;curved=1;sourcePerimeterSpacing=0;targetPerimeterSpacing=0;rounded=0;" parent="KZ37n1IrzKlXpWWZrorU-3" source="KZ37n1IrzKlXpWWZrorU-8" target="KZ37n1IrzKlXpWWZrorU-9" edge="1">
          <mxGeometry relative="1" as="geometry" />
        </mxCell>
        <mxCell id="KZ37n1IrzKlXpWWZrorU-8" value="C++工作" style="ellipse;whiteSpace=wrap;html=1;align=center;treeFolding=1;treeMoving=1;newEdgeStyle={&quot;edgeStyle&quot;:&quot;entityRelationEdgeStyle&quot;,&quot;startArrow&quot;:&quot;none&quot;,&quot;endArrow&quot;:&quot;none&quot;,&quot;segment&quot;:10,&quot;curved&quot;:1,&quot;sourcePerimeterSpacing&quot;:0,&quot;targetPerimeterSpacing&quot;:0};" parent="KZ37n1IrzKlXpWWZrorU-3" vertex="1">
          <mxGeometry x="1587.06" y="467" width="100" height="40" as="geometry" />
        </mxCell>
        <mxCell id="KZ37n1IrzKlXpWWZrorU-9" value="C++基础" style="whiteSpace=wrap;html=1;rounded=1;arcSize=50;align=center;verticalAlign=middle;strokeWidth=1;autosize=1;spacing=4;treeFolding=1;treeMoving=1;newEdgeStyle={&quot;edgeStyle&quot;:&quot;entityRelationEdgeStyle&quot;,&quot;startArrow&quot;:&quot;none&quot;,&quot;endArrow&quot;:&quot;none&quot;,&quot;segment&quot;:10,&quot;curved&quot;:1,&quot;sourcePerimeterSpacing&quot;:0,&quot;targetPerimeterSpacing&quot;:0};" parent="KZ37n1IrzKlXpWWZrorU-3" vertex="1" collapsed="1">
          <mxGeometry x="1786.06" y="333" width="86" height="30" as="geometry" />
        </mxCell>
        <mxCell id="KZ37n1IrzKlXpWWZrorU-15" value="" style="edgeStyle=entityRelationEdgeStyle;startArrow=none;endArrow=none;segment=10;curved=1;sourcePerimeterSpacing=0;targetPerimeterSpacing=0;rounded=0;" parent="KZ37n1IrzKlXpWWZrorU-3" source="KZ37n1IrzKlXpWWZrorU-8" target="KZ37n1IrzKlXpWWZrorU-16" edge="1">
          <mxGeometry relative="1" as="geometry">
            <mxPoint x="1511.06" y="294" as="sourcePoint" />
          </mxGeometry>
        </mxCell>
        <mxCell id="KZ37n1IrzKlXpWWZrorU-16" value="Linux基础" style="whiteSpace=wrap;html=1;rounded=1;arcSize=50;align=center;verticalAlign=middle;strokeWidth=1;autosize=1;spacing=4;treeFolding=1;treeMoving=1;newEdgeStyle={&quot;edgeStyle&quot;:&quot;entityRelationEdgeStyle&quot;,&quot;startArrow&quot;:&quot;none&quot;,&quot;endArrow&quot;:&quot;none&quot;,&quot;segment&quot;:10,&quot;curved&quot;:1,&quot;sourcePerimeterSpacing&quot;:0,&quot;targetPerimeterSpacing&quot;:0};" parent="KZ37n1IrzKlXpWWZrorU-3" vertex="1">
          <mxGeometry x="1783.06" y="400" width="92" height="30" as="geometry" />
        </mxCell>
        <mxCell id="KZ37n1IrzKlXpWWZrorU-23" value="" style="edgeStyle=entityRelationEdgeStyle;startArrow=none;endArrow=none;segment=10;curved=1;sourcePerimeterSpacing=0;targetPerimeterSpacing=0;rounded=0;" parent="KZ37n1IrzKlXpWWZrorU-3" source="KZ37n1IrzKlXpWWZrorU-8" target="KZ37n1IrzKlXpWWZrorU-24" edge="1">
          <mxGeometry relative="1" as="geometry">
            <mxPoint x="1529.06" y="356" as="sourcePoint" />
          </mxGeometry>
        </mxCell>
        <mxCell id="KZ37n1IrzKlXpWWZrorU-24" value="数据结构与算法" style="whiteSpace=wrap;html=1;rounded=1;arcSize=50;align=center;verticalAlign=middle;strokeWidth=1;autosize=1;spacing=4;treeFolding=1;treeMoving=1;newEdgeStyle={&quot;edgeStyle&quot;:&quot;entityRelationEdgeStyle&quot;,&quot;startArrow&quot;:&quot;none&quot;,&quot;endArrow&quot;:&quot;none&quot;,&quot;segment&quot;:10,&quot;curved&quot;:1,&quot;sourcePerimeterSpacing&quot;:0,&quot;targetPerimeterSpacing&quot;:0};" parent="KZ37n1IrzKlXpWWZrorU-3" vertex="1">
          <mxGeometry x="1760.06" y="462.5" width="123" height="30" as="geometry" />
        </mxCell>
        <mxCell id="KZ37n1IrzKlXpWWZrorU-25" value="" style="edgeStyle=entityRelationEdgeStyle;startArrow=none;endArrow=none;segment=10;curved=1;sourcePerimeterSpacing=0;targetPerimeterSpacing=0;rounded=0;" parent="KZ37n1IrzKlXpWWZrorU-3" source="KZ37n1IrzKlXpWWZrorU-8" target="KZ37n1IrzKlXpWWZrorU-26" edge="1">
          <mxGeometry relative="1" as="geometry">
            <mxPoint x="1529.06" y="356" as="sourcePoint" />
          </mxGeometry>
        </mxCell>
        <mxCell id="KZ37n1IrzKlXpWWZrorU-26" value="操作系统" style="whiteSpace=wrap;html=1;rounded=1;arcSize=50;align=center;verticalAlign=middle;strokeWidth=1;autosize=1;spacing=4;treeFolding=1;treeMoving=1;newEdgeStyle={&quot;edgeStyle&quot;:&quot;entityRelationEdgeStyle&quot;,&quot;startArrow&quot;:&quot;none&quot;,&quot;endArrow&quot;:&quot;none&quot;,&quot;segment&quot;:10,&quot;curved&quot;:1,&quot;sourcePerimeterSpacing&quot;:0,&quot;targetPerimeterSpacing&quot;:0};" parent="KZ37n1IrzKlXpWWZrorU-3" vertex="1">
          <mxGeometry x="1783.06" y="563" width="87" height="30" as="geometry" />
        </mxCell>
        <mxCell id="KZ37n1IrzKlXpWWZrorU-27" value="" style="edgeStyle=entityRelationEdgeStyle;rounded=0;orthogonalLoop=1;jettySize=auto;html=1;startArrow=none;endArrow=none;segment=10;curved=1;sourcePerimeterSpacing=0;targetPerimeterSpacing=0;" parent="KZ37n1IrzKlXpWWZrorU-3" source="KZ37n1IrzKlXpWWZrorU-8" target="KZ37n1IrzKlXpWWZrorU-28" edge="1">
          <mxGeometry relative="1" as="geometry" />
        </mxCell>
        <mxCell id="KZ37n1IrzKlXpWWZrorU-28" value="项目" style="ellipse;whiteSpace=wrap;html=1;align=center;treeFolding=1;treeMoving=1;newEdgeStyle={&quot;edgeStyle&quot;:&quot;entityRelationEdgeStyle&quot;,&quot;startArrow&quot;:&quot;none&quot;,&quot;endArrow&quot;:&quot;none&quot;,&quot;segment&quot;:10,&quot;curved&quot;:1,&quot;sourcePerimeterSpacing&quot;:0,&quot;targetPerimeterSpacing&quot;:0};" parent="KZ37n1IrzKlXpWWZrorU-3" vertex="1">
          <mxGeometry x="1370.06" y="341" width="100" height="40" as="geometry" />
        </mxCell>
        <mxCell id="KZ37n1IrzKlXpWWZrorU-38" value="" style="edgeStyle=entityRelationEdgeStyle;startArrow=none;endArrow=none;segment=10;curved=1;sourcePerimeterSpacing=0;targetPerimeterSpacing=0;rounded=0;exitX=1;exitY=0.5;exitDx=0;exitDy=0;" parent="KZ37n1IrzKlXpWWZrorU-3" source="KZ37n1IrzKlXpWWZrorU-24" target="KZ37n1IrzKlXpWWZrorU-42" edge="1">
          <mxGeometry relative="1" as="geometry">
            <mxPoint x="1878.06" y="480" as="sourcePoint" />
            <Array as="points">
              <mxPoint x="1878.06" y="480.5" />
            </Array>
          </mxGeometry>
        </mxCell>
        <UserObject label="灵山茶艾府的题单" link="https://leetcode.cn/circle/discuss/RvFUtj/" id="KZ37n1IrzKlXpWWZrorU-42">
          <mxCell style="whiteSpace=wrap;html=1;shape=partialRectangle;top=0;left=0;bottom=1;right=0;points=[[0,1],[1,1]];fillColor=none;align=center;verticalAlign=bottom;routingCenterY=0.5;snapToPoint=1;recursiveResize=0;autosize=1;treeFolding=1;treeMoving=1;newEdgeStyle={&quot;edgeStyle&quot;:&quot;entityRelationEdgeStyle&quot;,&quot;startArrow&quot;:&quot;none&quot;,&quot;endArrow&quot;:&quot;none&quot;,&quot;segment&quot;:10,&quot;curved&quot;:1,&quot;sourcePerimeterSpacing&quot;:0,&quot;targetPerimeterSpacing&quot;:0};" parent="KZ37n1IrzKlXpWWZrorU-3" vertex="1" collapsed="1">
            <mxGeometry x="1911.06" y="426" width="131" height="26" as="geometry" />
          </mxCell>
        </UserObject>
        <mxCell id="KZ37n1IrzKlXpWWZrorU-43" value="" style="edgeStyle=entityRelationEdgeStyle;startArrow=none;endArrow=none;segment=10;curved=1;sourcePerimeterSpacing=0;targetPerimeterSpacing=0;rounded=0;exitX=1;exitY=0.5;exitDx=0;exitDy=0;" parent="KZ37n1IrzKlXpWWZrorU-3" source="KZ37n1IrzKlXpWWZrorU-24" target="KZ37n1IrzKlXpWWZrorU-44" edge="1">
          <mxGeometry relative="1" as="geometry">
            <mxPoint x="1741.06" y="413.5" as="sourcePoint" />
            <Array as="points">
              <mxPoint x="1744.06" y="414" />
            </Array>
          </mxGeometry>
        </mxCell>
        <UserObject label="HOT100" link="https://leetcode.cn/studyplan/top-100-liked/" id="KZ37n1IrzKlXpWWZrorU-44">
          <mxCell style="whiteSpace=wrap;html=1;shape=partialRectangle;top=0;left=0;bottom=1;right=0;points=[[0,1],[1,1]];fillColor=none;align=center;verticalAlign=bottom;routingCenterY=0.5;snapToPoint=1;recursiveResize=0;autosize=1;treeFolding=1;treeMoving=1;newEdgeStyle={&quot;edgeStyle&quot;:&quot;entityRelationEdgeStyle&quot;,&quot;startArrow&quot;:&quot;none&quot;,&quot;endArrow&quot;:&quot;none&quot;,&quot;segment&quot;:10,&quot;curved&quot;:1,&quot;sourcePerimeterSpacing&quot;:0,&quot;targetPerimeterSpacing&quot;:0};" parent="KZ37n1IrzKlXpWWZrorU-3" vertex="1">
            <mxGeometry x="1950.06" y="456.5" width="80" height="26" as="geometry" />
          </mxCell>
        </UserObject>
        <mxCell id="KZ37n1IrzKlXpWWZrorU-45" value="" style="edgeStyle=entityRelationEdgeStyle;startArrow=none;endArrow=none;segment=10;curved=1;sourcePerimeterSpacing=0;targetPerimeterSpacing=0;rounded=0;exitX=1;exitY=0.5;exitDx=0;exitDy=0;" parent="KZ37n1IrzKlXpWWZrorU-3" source="KZ37n1IrzKlXpWWZrorU-24" target="KZ37n1IrzKlXpWWZrorU-46" edge="1">
          <mxGeometry relative="1" as="geometry">
            <mxPoint x="1741.06" y="413.5" as="sourcePoint" />
            <Array as="points">
              <mxPoint x="1610.06" y="347.5" />
            </Array>
          </mxGeometry>
        </mxCell>
        <UserObject label="HOT150" link="https://leetcode.cn/studyplan/top-interview-150/" id="KZ37n1IrzKlXpWWZrorU-46">
          <mxCell style="whiteSpace=wrap;html=1;shape=partialRectangle;top=0;left=0;bottom=1;right=0;points=[[0,1],[1,1]];fillColor=none;align=center;verticalAlign=bottom;routingCenterY=0.5;snapToPoint=1;recursiveResize=0;autosize=1;treeFolding=1;treeMoving=1;newEdgeStyle={&quot;edgeStyle&quot;:&quot;entityRelationEdgeStyle&quot;,&quot;startArrow&quot;:&quot;none&quot;,&quot;endArrow&quot;:&quot;none&quot;,&quot;segment&quot;:10,&quot;curved&quot;:1,&quot;sourcePerimeterSpacing&quot;:0,&quot;targetPerimeterSpacing&quot;:0};" parent="KZ37n1IrzKlXpWWZrorU-3" vertex="1">
            <mxGeometry x="1950.06" y="492.5" width="80" height="26" as="geometry" />
          </mxCell>
        </UserObject>
        <mxCell id="KZ37n1IrzKlXpWWZrorU-49" value="" style="edgeStyle=entityRelationEdgeStyle;startArrow=none;endArrow=none;segment=10;curved=1;sourcePerimeterSpacing=0;targetPerimeterSpacing=0;rounded=0;exitX=1;exitY=1;exitDx=0;exitDy=0;" parent="KZ37n1IrzKlXpWWZrorU-3" source="KZ37n1IrzKlXpWWZrorU-42" target="KZ37n1IrzKlXpWWZrorU-50" edge="1" visible="0">
          <mxGeometry relative="1" as="geometry">
            <mxPoint x="1741.06" y="413.5" as="sourcePoint" />
            <Array as="points">
              <mxPoint x="1744.06" y="414" />
            </Array>
          </mxGeometry>
        </mxCell>
        <UserObject label="1. 滑动窗口" link="https://leetcode.cn/circle/discuss/0viNMK/" id="KZ37n1IrzKlXpWWZrorU-50">
          <mxCell style="whiteSpace=wrap;html=1;shape=partialRectangle;top=0;left=0;bottom=1;right=0;points=[[0,1],[1,1]];fillColor=none;align=center;verticalAlign=bottom;routingCenterY=0.5;snapToPoint=1;recursiveResize=0;autosize=1;treeFolding=1;treeMoving=1;newEdgeStyle={&quot;edgeStyle&quot;:&quot;entityRelationEdgeStyle&quot;,&quot;startArrow&quot;:&quot;none&quot;,&quot;endArrow&quot;:&quot;none&quot;,&quot;segment&quot;:10,&quot;curved&quot;:1,&quot;sourcePerimeterSpacing&quot;:0,&quot;targetPerimeterSpacing&quot;:0};" parent="KZ37n1IrzKlXpWWZrorU-3" vertex="1" visible="0">
            <mxGeometry x="2115.06" y="287.5" width="96" height="26" as="geometry" />
          </mxCell>
        </UserObject>
        <mxCell id="KZ37n1IrzKlXpWWZrorU-51" value="" style="edgeStyle=entityRelationEdgeStyle;startArrow=none;endArrow=none;segment=10;curved=1;sourcePerimeterSpacing=0;targetPerimeterSpacing=0;rounded=0;exitX=1;exitY=1;exitDx=0;exitDy=0;" parent="KZ37n1IrzKlXpWWZrorU-3" source="KZ37n1IrzKlXpWWZrorU-42" target="KZ37n1IrzKlXpWWZrorU-52" edge="1" visible="0">
          <mxGeometry relative="1" as="geometry">
            <mxPoint x="1921.06" y="380.5" as="sourcePoint" />
            <Array as="points">
              <mxPoint x="1610.06" y="347.5" />
            </Array>
          </mxGeometry>
        </mxCell>
        <UserObject label="2. 二分" link="https://leetcode.cn/circle/discuss/SqopEo/" id="KZ37n1IrzKlXpWWZrorU-52">
          <mxCell style="whiteSpace=wrap;html=1;shape=partialRectangle;top=0;left=0;bottom=1;right=0;points=[[0,1],[1,1]];fillColor=none;align=center;verticalAlign=bottom;routingCenterY=0.5;snapToPoint=1;recursiveResize=0;autosize=1;treeFolding=1;treeMoving=1;newEdgeStyle={&quot;edgeStyle&quot;:&quot;entityRelationEdgeStyle&quot;,&quot;startArrow&quot;:&quot;none&quot;,&quot;endArrow&quot;:&quot;none&quot;,&quot;segment&quot;:10,&quot;curved&quot;:1,&quot;sourcePerimeterSpacing&quot;:0,&quot;targetPerimeterSpacing&quot;:0};" parent="KZ37n1IrzKlXpWWZrorU-3" vertex="1" visible="0">
            <mxGeometry x="2127.06" y="323.5" width="72" height="26" as="geometry" />
          </mxCell>
        </UserObject>
        <mxCell id="KZ37n1IrzKlXpWWZrorU-53" value="" style="edgeStyle=entityRelationEdgeStyle;startArrow=none;endArrow=none;segment=10;curved=1;sourcePerimeterSpacing=0;targetPerimeterSpacing=0;rounded=0;exitX=1;exitY=1;exitDx=0;exitDy=0;" parent="KZ37n1IrzKlXpWWZrorU-3" source="KZ37n1IrzKlXpWWZrorU-42" target="KZ37n1IrzKlXpWWZrorU-54" edge="1" visible="0">
          <mxGeometry relative="1" as="geometry">
            <mxPoint x="1921.06" y="380.5" as="sourcePoint" />
            <Array as="points">
              <mxPoint x="1476.06" y="281" />
            </Array>
          </mxGeometry>
        </mxCell>
        <UserObject label="3. 常用数据结构" link="https://leetcode.cn/circle/discuss/mOr1u6/" id="KZ37n1IrzKlXpWWZrorU-54">
          <mxCell style="whiteSpace=wrap;html=1;shape=partialRectangle;top=0;left=0;bottom=1;right=0;points=[[0,1],[1,1]];fillColor=none;align=center;verticalAlign=bottom;routingCenterY=0.5;snapToPoint=1;recursiveResize=0;autosize=1;treeFolding=1;treeMoving=1;newEdgeStyle={&quot;edgeStyle&quot;:&quot;entityRelationEdgeStyle&quot;,&quot;startArrow&quot;:&quot;none&quot;,&quot;endArrow&quot;:&quot;none&quot;,&quot;segment&quot;:10,&quot;curved&quot;:1,&quot;sourcePerimeterSpacing&quot;:0,&quot;targetPerimeterSpacing&quot;:0};" parent="KZ37n1IrzKlXpWWZrorU-3" vertex="1" visible="0">
            <mxGeometry x="2118.06" y="359.5" width="120" height="26" as="geometry" />
          </mxCell>
        </UserObject>
        <mxCell id="KZ37n1IrzKlXpWWZrorU-55" value="" style="edgeStyle=entityRelationEdgeStyle;startArrow=none;endArrow=none;segment=10;curved=1;sourcePerimeterSpacing=0;targetPerimeterSpacing=0;rounded=0;exitX=1;exitY=1;exitDx=0;exitDy=0;" parent="KZ37n1IrzKlXpWWZrorU-3" source="KZ37n1IrzKlXpWWZrorU-42" target="KZ37n1IrzKlXpWWZrorU-56" edge="1" visible="0">
          <mxGeometry relative="1" as="geometry">
            <mxPoint x="1921.06" y="380.5" as="sourcePoint" />
            <Array as="points">
              <mxPoint x="1342.06" y="214.5" />
            </Array>
          </mxGeometry>
        </mxCell>
        <UserObject label="4. 动态规划" link="https://leetcode.cn/circle/discuss/tXLS3i/" id="KZ37n1IrzKlXpWWZrorU-56">
          <mxCell style="whiteSpace=wrap;html=1;shape=partialRectangle;top=0;left=0;bottom=1;right=0;points=[[0,1],[1,1]];fillColor=none;align=center;verticalAlign=bottom;routingCenterY=0.5;snapToPoint=1;recursiveResize=0;autosize=1;treeFolding=1;treeMoving=1;newEdgeStyle={&quot;edgeStyle&quot;:&quot;entityRelationEdgeStyle&quot;,&quot;startArrow&quot;:&quot;none&quot;,&quot;endArrow&quot;:&quot;none&quot;,&quot;segment&quot;:10,&quot;curved&quot;:1,&quot;sourcePerimeterSpacing&quot;:0,&quot;targetPerimeterSpacing&quot;:0};" parent="KZ37n1IrzKlXpWWZrorU-3" vertex="1" visible="0">
            <mxGeometry x="2115.06" y="395.5" width="96" height="26" as="geometry" />
          </mxCell>
        </UserObject>
        <mxCell id="KZ37n1IrzKlXpWWZrorU-57" value="" style="edgeStyle=entityRelationEdgeStyle;startArrow=none;endArrow=none;segment=10;curved=1;sourcePerimeterSpacing=0;targetPerimeterSpacing=0;rounded=0;exitX=1;exitY=1;exitDx=0;exitDy=0;" parent="KZ37n1IrzKlXpWWZrorU-3" source="KZ37n1IrzKlXpWWZrorU-52" target="KZ37n1IrzKlXpWWZrorU-58" edge="1" visible="0">
          <mxGeometry relative="1" as="geometry">
            <mxPoint x="1921.06" y="380.5" as="sourcePoint" />
            <Array as="points">
              <mxPoint x="1476.06" y="281" />
            </Array>
          </mxGeometry>
        </mxCell>
        <UserObject label="lc2080" link="https://leetcode.cn/problems/range-frequency-queries/description/" id="KZ37n1IrzKlXpWWZrorU-58">
          <mxCell style="whiteSpace=wrap;html=1;shape=partialRectangle;top=0;left=0;bottom=1;right=0;points=[[0,1],[1,1]];fillColor=none;align=center;verticalAlign=bottom;routingCenterY=0.5;snapToPoint=1;recursiveResize=0;autosize=1;treeFolding=1;treeMoving=1;newEdgeStyle={&quot;edgeStyle&quot;:&quot;entityRelationEdgeStyle&quot;,&quot;startArrow&quot;:&quot;none&quot;,&quot;endArrow&quot;:&quot;none&quot;,&quot;segment&quot;:10,&quot;curved&quot;:1,&quot;sourcePerimeterSpacing&quot;:0,&quot;targetPerimeterSpacing&quot;:0};" parent="KZ37n1IrzKlXpWWZrorU-3" vertex="1" visible="0">
            <mxGeometry x="2491.06" y="283" width="70" height="26" as="geometry" />
          </mxCell>
        </UserObject>
        <mxCell id="KZ37n1IrzKlXpWWZrorU-59" value="" style="edgeStyle=entityRelationEdgeStyle;startArrow=none;endArrow=none;segment=10;curved=1;sourcePerimeterSpacing=0;targetPerimeterSpacing=0;rounded=0;exitX=1;exitY=1;exitDx=0;exitDy=0;" parent="KZ37n1IrzKlXpWWZrorU-3" source="KZ37n1IrzKlXpWWZrorU-52" target="KZ37n1IrzKlXpWWZrorU-60" edge="1" visible="0">
          <mxGeometry relative="1" as="geometry">
            <mxPoint x="2065.06" y="282.5" as="sourcePoint" />
            <Array as="points">
              <mxPoint x="1342.06" y="214.5" />
            </Array>
          </mxGeometry>
        </mxCell>
        <UserObject label="lc1818" link="https://leetcode.cn/problems/minimum-absolute-sum-difference/description/" id="KZ37n1IrzKlXpWWZrorU-60">
          <mxCell style="whiteSpace=wrap;html=1;shape=partialRectangle;top=0;left=0;bottom=1;right=0;points=[[0,1],[1,1]];fillColor=none;align=center;verticalAlign=bottom;routingCenterY=0.5;snapToPoint=1;recursiveResize=0;autosize=1;treeFolding=1;treeMoving=1;newEdgeStyle={&quot;edgeStyle&quot;:&quot;entityRelationEdgeStyle&quot;,&quot;startArrow&quot;:&quot;none&quot;,&quot;endArrow&quot;:&quot;none&quot;,&quot;segment&quot;:10,&quot;curved&quot;:1,&quot;sourcePerimeterSpacing&quot;:0,&quot;targetPerimeterSpacing&quot;:0};" parent="KZ37n1IrzKlXpWWZrorU-3" vertex="1" visible="0">
            <mxGeometry x="2491.06" y="357" width="70" height="26" as="geometry" />
          </mxCell>
        </UserObject>
        <mxCell id="EZLroLeH2ZfDFkRHjTmh-3" value="Linux高性能服务器" style="whiteSpace=wrap;html=1;shape=partialRectangle;top=0;left=0;bottom=1;right=0;points=[[0,1],[1,1]];fillColor=none;align=center;verticalAlign=bottom;routingCenterY=0.5;snapToPoint=1;recursiveResize=0;autosize=1;treeFolding=1;treeMoving=1;newEdgeStyle={&quot;edgeStyle&quot;:&quot;entityRelationEdgeStyle&quot;,&quot;startArrow&quot;:&quot;none&quot;,&quot;endArrow&quot;:&quot;none&quot;,&quot;segment&quot;:10,&quot;curved&quot;:1,&quot;sourcePerimeterSpacing&quot;:0,&quot;targetPerimeterSpacing&quot;:0};" parent="KZ37n1IrzKlXpWWZrorU-3" vertex="1" collapsed="1">
          <mxGeometry x="1899.06" y="369" width="136" height="26" as="geometry" />
        </mxCell>
        <mxCell id="EZLroLeH2ZfDFkRHjTmh-4" value="" style="edgeStyle=entityRelationEdgeStyle;startArrow=none;endArrow=none;segment=10;curved=1;sourcePerimeterSpacing=0;targetPerimeterSpacing=0;rounded=0;exitX=1;exitY=0.5;exitDx=0;exitDy=0;" parent="KZ37n1IrzKlXpWWZrorU-3" source="KZ37n1IrzKlXpWWZrorU-16" target="EZLroLeH2ZfDFkRHjTmh-3" edge="1">
          <mxGeometry relative="1" as="geometry">
            <mxPoint x="1886.06" y="415" as="sourcePoint" />
          </mxGeometry>
        </mxCell>
        <mxCell id="EZLroLeH2ZfDFkRHjTmh-5" value="" style="edgeStyle=entityRelationEdgeStyle;startArrow=none;endArrow=none;segment=10;curved=1;sourcePerimeterSpacing=0;targetPerimeterSpacing=0;rounded=0;exitX=1;exitY=1;exitDx=0;exitDy=0;" parent="KZ37n1IrzKlXpWWZrorU-3" source="EZLroLeH2ZfDFkRHjTmh-3" target="EZLroLeH2ZfDFkRHjTmh-6" edge="1" visible="0">
          <mxGeometry relative="1" as="geometry">
            <mxPoint x="1565.06" y="141" as="sourcePoint" />
          </mxGeometry>
        </mxCell>
        <mxCell id="EZLroLeH2ZfDFkRHjTmh-6" value="多线程" style="whiteSpace=wrap;html=1;shape=partialRectangle;top=0;left=0;bottom=1;right=0;points=[[0,1],[1,1]];fillColor=none;align=center;verticalAlign=bottom;routingCenterY=0.5;snapToPoint=1;recursiveResize=0;autosize=1;treeFolding=1;treeMoving=1;newEdgeStyle={&quot;edgeStyle&quot;:&quot;entityRelationEdgeStyle&quot;,&quot;startArrow&quot;:&quot;none&quot;,&quot;endArrow&quot;:&quot;none&quot;,&quot;segment&quot;:10,&quot;curved&quot;:1,&quot;sourcePerimeterSpacing&quot;:0,&quot;targetPerimeterSpacing&quot;:0};" parent="KZ37n1IrzKlXpWWZrorU-3" vertex="1" visible="0">
          <mxGeometry x="2111.06" y="298" width="71" height="26" as="geometry" />
        </mxCell>
        <mxCell id="EZLroLeH2ZfDFkRHjTmh-9" value="" style="edgeStyle=entityRelationEdgeStyle;startArrow=none;endArrow=none;segment=10;curved=1;sourcePerimeterSpacing=0;targetPerimeterSpacing=0;rounded=0;exitX=1;exitY=1;exitDx=0;exitDy=0;" parent="KZ37n1IrzKlXpWWZrorU-3" source="EZLroLeH2ZfDFkRHjTmh-6" target="EZLroLeH2ZfDFkRHjTmh-10" edge="1" visible="0">
          <mxGeometry relative="1" as="geometry">
            <mxPoint x="1725.06" y="121" as="sourcePoint" />
          </mxGeometry>
        </mxCell>
        <mxCell id="EZLroLeH2ZfDFkRHjTmh-10" value="线程同步技术" style="whiteSpace=wrap;html=1;shape=partialRectangle;top=0;left=0;bottom=1;right=0;points=[[0,1],[1,1]];fillColor=none;align=center;verticalAlign=bottom;routingCenterY=0.5;snapToPoint=1;recursiveResize=0;autosize=1;treeFolding=1;treeMoving=1;newEdgeStyle={&quot;edgeStyle&quot;:&quot;entityRelationEdgeStyle&quot;,&quot;startArrow&quot;:&quot;none&quot;,&quot;endArrow&quot;:&quot;none&quot;,&quot;segment&quot;:10,&quot;curved&quot;:1,&quot;sourcePerimeterSpacing&quot;:0,&quot;targetPerimeterSpacing&quot;:0};" parent="KZ37n1IrzKlXpWWZrorU-3" vertex="1" collapsed="1" visible="0">
          <mxGeometry x="2236.06" y="263" width="107" height="26" as="geometry" />
        </mxCell>
        <mxCell id="EZLroLeH2ZfDFkRHjTmh-11" value="" style="edgeStyle=entityRelationEdgeStyle;startArrow=none;endArrow=none;segment=10;curved=1;sourcePerimeterSpacing=0;targetPerimeterSpacing=0;rounded=0;exitX=1;exitY=1;exitDx=0;exitDy=0;" parent="KZ37n1IrzKlXpWWZrorU-3" source="EZLroLeH2ZfDFkRHjTmh-10" target="EZLroLeH2ZfDFkRHjTmh-12" edge="1" visible="0">
          <mxGeometry relative="1" as="geometry">
            <mxPoint x="1904.06" y="15" as="sourcePoint" />
          </mxGeometry>
        </mxCell>
        <mxCell id="EZLroLeH2ZfDFkRHjTmh-12" value="信号量" style="whiteSpace=wrap;html=1;shape=partialRectangle;top=0;left=0;bottom=1;right=0;points=[[0,1],[1,1]];fillColor=none;align=center;verticalAlign=bottom;routingCenterY=0.5;snapToPoint=1;recursiveResize=0;autosize=1;treeFolding=1;treeMoving=1;newEdgeStyle={&quot;edgeStyle&quot;:&quot;entityRelationEdgeStyle&quot;,&quot;startArrow&quot;:&quot;none&quot;,&quot;endArrow&quot;:&quot;none&quot;,&quot;segment&quot;:10,&quot;curved&quot;:1,&quot;sourcePerimeterSpacing&quot;:0,&quot;targetPerimeterSpacing&quot;:0};" parent="KZ37n1IrzKlXpWWZrorU-3" vertex="1" visible="0">
          <mxGeometry x="2378.06" y="168" width="71" height="26" as="geometry" />
        </mxCell>
        <mxCell id="EZLroLeH2ZfDFkRHjTmh-13" value="" style="edgeStyle=entityRelationEdgeStyle;startArrow=none;endArrow=none;segment=10;curved=1;sourcePerimeterSpacing=0;targetPerimeterSpacing=0;rounded=0;exitX=1;exitY=1;exitDx=0;exitDy=0;" parent="KZ37n1IrzKlXpWWZrorU-3" source="EZLroLeH2ZfDFkRHjTmh-10" target="EZLroLeH2ZfDFkRHjTmh-14" edge="1" visible="0">
          <mxGeometry relative="1" as="geometry">
            <mxPoint x="2021.06" y="15" as="sourcePoint" />
          </mxGeometry>
        </mxCell>
        <mxCell id="EZLroLeH2ZfDFkRHjTmh-14" value="互斥锁" style="whiteSpace=wrap;html=1;shape=partialRectangle;top=0;left=0;bottom=1;right=0;points=[[0,1],[1,1]];fillColor=none;align=center;verticalAlign=bottom;routingCenterY=0.5;snapToPoint=1;recursiveResize=0;autosize=1;treeFolding=1;treeMoving=1;newEdgeStyle={&quot;edgeStyle&quot;:&quot;entityRelationEdgeStyle&quot;,&quot;startArrow&quot;:&quot;none&quot;,&quot;endArrow&quot;:&quot;none&quot;,&quot;segment&quot;:10,&quot;curved&quot;:1,&quot;sourcePerimeterSpacing&quot;:0,&quot;targetPerimeterSpacing&quot;:0};" parent="KZ37n1IrzKlXpWWZrorU-3" vertex="1" visible="0">
          <mxGeometry x="2378.06" y="204" width="71" height="26" as="geometry" />
        </mxCell>
        <mxCell id="EZLroLeH2ZfDFkRHjTmh-15" value="" style="edgeStyle=entityRelationEdgeStyle;startArrow=none;endArrow=none;segment=10;curved=1;sourcePerimeterSpacing=0;targetPerimeterSpacing=0;rounded=0;exitX=1;exitY=1;exitDx=0;exitDy=0;" parent="KZ37n1IrzKlXpWWZrorU-3" source="EZLroLeH2ZfDFkRHjTmh-10" target="EZLroLeH2ZfDFkRHjTmh-16" edge="1" visible="0">
          <mxGeometry relative="1" as="geometry">
            <mxPoint x="2021.06" y="15" as="sourcePoint" />
          </mxGeometry>
        </mxCell>
        <mxCell id="EZLroLeH2ZfDFkRHjTmh-16" value="读写锁" style="whiteSpace=wrap;html=1;shape=partialRectangle;top=0;left=0;bottom=1;right=0;points=[[0,1],[1,1]];fillColor=none;align=center;verticalAlign=bottom;routingCenterY=0.5;snapToPoint=1;recursiveResize=0;autosize=1;treeFolding=1;treeMoving=1;newEdgeStyle={&quot;edgeStyle&quot;:&quot;entityRelationEdgeStyle&quot;,&quot;startArrow&quot;:&quot;none&quot;,&quot;endArrow&quot;:&quot;none&quot;,&quot;segment&quot;:10,&quot;curved&quot;:1,&quot;sourcePerimeterSpacing&quot;:0,&quot;targetPerimeterSpacing&quot;:0};" parent="KZ37n1IrzKlXpWWZrorU-3" vertex="1" visible="0">
          <mxGeometry x="2378.06" y="240" width="71" height="26" as="geometry" />
        </mxCell>
        <mxCell id="EZLroLeH2ZfDFkRHjTmh-17" value="" style="edgeStyle=entityRelationEdgeStyle;startArrow=none;endArrow=none;segment=10;curved=1;sourcePerimeterSpacing=0;targetPerimeterSpacing=0;rounded=0;exitX=1;exitY=1;exitDx=0;exitDy=0;" parent="KZ37n1IrzKlXpWWZrorU-3" source="EZLroLeH2ZfDFkRHjTmh-10" target="EZLroLeH2ZfDFkRHjTmh-18" edge="1" visible="0">
          <mxGeometry relative="1" as="geometry">
            <mxPoint x="2021.06" y="15" as="sourcePoint" />
          </mxGeometry>
        </mxCell>
        <mxCell id="EZLroLeH2ZfDFkRHjTmh-18" value="条件变量" style="whiteSpace=wrap;html=1;shape=partialRectangle;top=0;left=0;bottom=1;right=0;points=[[0,1],[1,1]];fillColor=none;align=center;verticalAlign=bottom;routingCenterY=0.5;snapToPoint=1;recursiveResize=0;autosize=1;treeFolding=1;treeMoving=1;newEdgeStyle={&quot;edgeStyle&quot;:&quot;entityRelationEdgeStyle&quot;,&quot;startArrow&quot;:&quot;none&quot;,&quot;endArrow&quot;:&quot;none&quot;,&quot;segment&quot;:10,&quot;curved&quot;:1,&quot;sourcePerimeterSpacing&quot;:0,&quot;targetPerimeterSpacing&quot;:0};" parent="KZ37n1IrzKlXpWWZrorU-3" vertex="1" visible="0">
          <mxGeometry x="2372.06" y="276" width="83" height="26" as="geometry" />
        </mxCell>
        <mxCell id="EZLroLeH2ZfDFkRHjTmh-19" value="" style="edgeStyle=entityRelationEdgeStyle;startArrow=none;endArrow=none;segment=10;curved=1;sourcePerimeterSpacing=0;targetPerimeterSpacing=0;rounded=0;exitX=1;exitY=1;exitDx=0;exitDy=0;" parent="KZ37n1IrzKlXpWWZrorU-3" source="EZLroLeH2ZfDFkRHjTmh-10" target="EZLroLeH2ZfDFkRHjTmh-20" edge="1" visible="0">
          <mxGeometry relative="1" as="geometry">
            <mxPoint x="2021.06" y="15" as="sourcePoint" />
          </mxGeometry>
        </mxCell>
        <mxCell id="EZLroLeH2ZfDFkRHjTmh-20" value="原子操作" style="whiteSpace=wrap;html=1;shape=partialRectangle;top=0;left=0;bottom=1;right=0;points=[[0,1],[1,1]];fillColor=none;align=center;verticalAlign=bottom;routingCenterY=0.5;snapToPoint=1;recursiveResize=0;autosize=1;treeFolding=1;treeMoving=1;newEdgeStyle={&quot;edgeStyle&quot;:&quot;entityRelationEdgeStyle&quot;,&quot;startArrow&quot;:&quot;none&quot;,&quot;endArrow&quot;:&quot;none&quot;,&quot;segment&quot;:10,&quot;curved&quot;:1,&quot;sourcePerimeterSpacing&quot;:0,&quot;targetPerimeterSpacing&quot;:0};" parent="KZ37n1IrzKlXpWWZrorU-3" vertex="1" visible="0">
          <mxGeometry x="2372.06" y="312" width="83" height="26" as="geometry" />
        </mxCell>
        <mxCell id="EZLroLeH2ZfDFkRHjTmh-21" value="" style="edgeStyle=entityRelationEdgeStyle;startArrow=none;endArrow=none;segment=10;curved=1;sourcePerimeterSpacing=0;targetPerimeterSpacing=0;rounded=0;exitX=1;exitY=1;exitDx=0;exitDy=0;" parent="KZ37n1IrzKlXpWWZrorU-3" source="EZLroLeH2ZfDFkRHjTmh-10" target="EZLroLeH2ZfDFkRHjTmh-22" edge="1" visible="0">
          <mxGeometry relative="1" as="geometry">
            <mxPoint x="2021.06" y="15" as="sourcePoint" />
          </mxGeometry>
        </mxCell>
        <mxCell id="EZLroLeH2ZfDFkRHjTmh-22" value="屏障" style="whiteSpace=wrap;html=1;shape=partialRectangle;top=0;left=0;bottom=1;right=0;points=[[0,1],[1,1]];fillColor=none;align=center;verticalAlign=bottom;routingCenterY=0.5;snapToPoint=1;recursiveResize=0;autosize=1;treeFolding=1;treeMoving=1;newEdgeStyle={&quot;edgeStyle&quot;:&quot;entityRelationEdgeStyle&quot;,&quot;startArrow&quot;:&quot;none&quot;,&quot;endArrow&quot;:&quot;none&quot;,&quot;segment&quot;:10,&quot;curved&quot;:1,&quot;sourcePerimeterSpacing&quot;:0,&quot;targetPerimeterSpacing&quot;:0};" parent="KZ37n1IrzKlXpWWZrorU-3" vertex="1" visible="0">
          <mxGeometry x="2384.06" y="348" width="59" height="26" as="geometry" />
        </mxCell>
        <mxCell id="N_6x5Vvvwgn9JuhwjHZU-1" value="" style="edgeStyle=entityRelationEdgeStyle;startArrow=none;endArrow=none;segment=10;curved=1;sourcePerimeterSpacing=0;targetPerimeterSpacing=0;rounded=0;exitX=1;exitY=1;exitDx=0;exitDy=0;" parent="KZ37n1IrzKlXpWWZrorU-3" source="EZLroLeH2ZfDFkRHjTmh-6" target="N_6x5Vvvwgn9JuhwjHZU-2" edge="1" visible="0">
          <mxGeometry relative="1" as="geometry">
            <mxPoint x="1869.06" y="121" as="sourcePoint" />
          </mxGeometry>
        </mxCell>
        <mxCell id="N_6x5Vvvwgn9JuhwjHZU-2" value="线程池" style="whiteSpace=wrap;html=1;shape=partialRectangle;top=0;left=0;bottom=1;right=0;points=[[0,1],[1,1]];fillColor=none;align=center;verticalAlign=bottom;routingCenterY=0.5;snapToPoint=1;recursiveResize=0;autosize=1;treeFolding=1;treeMoving=1;newEdgeStyle={&quot;edgeStyle&quot;:&quot;entityRelationEdgeStyle&quot;,&quot;startArrow&quot;:&quot;none&quot;,&quot;endArrow&quot;:&quot;none&quot;,&quot;segment&quot;:10,&quot;curved&quot;:1,&quot;sourcePerimeterSpacing&quot;:0,&quot;targetPerimeterSpacing&quot;:0};" parent="KZ37n1IrzKlXpWWZrorU-3" vertex="1" visible="0">
          <mxGeometry x="2254.06" y="318" width="71" height="26" as="geometry" />
        </mxCell>
        <mxCell id="N_6x5Vvvwgn9JuhwjHZU-7" value="" style="edgeStyle=entityRelationEdgeStyle;startArrow=none;endArrow=none;segment=10;curved=1;sourcePerimeterSpacing=0;targetPerimeterSpacing=0;rounded=0;exitX=1;exitY=1;exitDx=0;exitDy=0;" parent="KZ37n1IrzKlXpWWZrorU-3" source="EZLroLeH2ZfDFkRHjTmh-3" target="N_6x5Vvvwgn9JuhwjHZU-8" edge="1" visible="0">
          <mxGeometry relative="1" as="geometry">
            <mxPoint x="1724.06" y="175" as="sourcePoint" />
          </mxGeometry>
        </mxCell>
        <mxCell id="N_6x5Vvvwgn9JuhwjHZU-8" value="Reactor和Proactor" style="whiteSpace=wrap;html=1;shape=partialRectangle;top=0;left=0;bottom=1;right=0;points=[[0,1],[1,1]];fillColor=none;align=center;verticalAlign=bottom;routingCenterY=0.5;snapToPoint=1;recursiveResize=0;autosize=1;treeFolding=1;treeMoving=1;newEdgeStyle={&quot;edgeStyle&quot;:&quot;entityRelationEdgeStyle&quot;,&quot;startArrow&quot;:&quot;none&quot;,&quot;endArrow&quot;:&quot;none&quot;,&quot;segment&quot;:10,&quot;curved&quot;:1,&quot;sourcePerimeterSpacing&quot;:0,&quot;targetPerimeterSpacing&quot;:0};" parent="KZ37n1IrzKlXpWWZrorU-3" vertex="1" visible="0">
          <mxGeometry x="2239.06" y="374" width="134" height="26" as="geometry" />
        </mxCell>
        <mxCell id="N_6x5Vvvwgn9JuhwjHZU-9" value="" style="edgeStyle=entityRelationEdgeStyle;startArrow=none;endArrow=none;segment=10;curved=1;sourcePerimeterSpacing=0;targetPerimeterSpacing=0;rounded=0;exitX=1;exitY=1;exitDx=0;exitDy=0;" parent="KZ37n1IrzKlXpWWZrorU-3" source="EZLroLeH2ZfDFkRHjTmh-3" target="N_6x5Vvvwgn9JuhwjHZU-10" edge="1" visible="0">
          <mxGeometry relative="1" as="geometry">
            <mxPoint x="1721.06" y="234" as="sourcePoint" />
          </mxGeometry>
        </mxCell>
        <mxCell id="N_6x5Vvvwgn9JuhwjHZU-10" value="IO多路复用技术" style="whiteSpace=wrap;html=1;shape=partialRectangle;top=0;left=0;bottom=1;right=0;points=[[0,1],[1,1]];fillColor=none;align=center;verticalAlign=bottom;routingCenterY=0.5;snapToPoint=1;recursiveResize=0;autosize=1;treeFolding=1;treeMoving=1;newEdgeStyle={&quot;edgeStyle&quot;:&quot;entityRelationEdgeStyle&quot;,&quot;startArrow&quot;:&quot;none&quot;,&quot;endArrow&quot;:&quot;none&quot;,&quot;segment&quot;:10,&quot;curved&quot;:1,&quot;sourcePerimeterSpacing&quot;:0,&quot;targetPerimeterSpacing&quot;:0};" parent="KZ37n1IrzKlXpWWZrorU-3" vertex="1" visible="0" collapsed="1">
          <mxGeometry x="2229.56" y="537" width="120" height="26" as="geometry" />
        </mxCell>
        <mxCell id="N_6x5Vvvwgn9JuhwjHZU-11" value="" style="edgeStyle=entityRelationEdgeStyle;startArrow=none;endArrow=none;segment=10;curved=1;sourcePerimeterSpacing=0;targetPerimeterSpacing=0;rounded=0;exitX=1;exitY=1;exitDx=0;exitDy=0;" parent="KZ37n1IrzKlXpWWZrorU-3" source="EZLroLeH2ZfDFkRHjTmh-3" target="N_6x5Vvvwgn9JuhwjHZU-12" edge="1" visible="0">
          <mxGeometry relative="1" as="geometry">
            <mxPoint x="1721.06" y="234" as="sourcePoint" />
          </mxGeometry>
        </mxCell>
        <mxCell id="N_6x5Vvvwgn9JuhwjHZU-12" value="C++ Socket" style="whiteSpace=wrap;html=1;shape=partialRectangle;top=0;left=0;bottom=1;right=0;points=[[0,1],[1,1]];fillColor=none;align=center;verticalAlign=bottom;routingCenterY=0.5;snapToPoint=1;recursiveResize=0;autosize=1;treeFolding=1;treeMoving=1;newEdgeStyle={&quot;edgeStyle&quot;:&quot;entityRelationEdgeStyle&quot;,&quot;startArrow&quot;:&quot;none&quot;,&quot;endArrow&quot;:&quot;none&quot;,&quot;segment&quot;:10,&quot;curved&quot;:1,&quot;sourcePerimeterSpacing&quot;:0,&quot;targetPerimeterSpacing&quot;:0};" parent="KZ37n1IrzKlXpWWZrorU-3" vertex="1" visible="0">
          <mxGeometry x="2245.06" y="460" width="98" height="26" as="geometry" />
        </mxCell>
        <mxCell id="N_6x5Vvvwgn9JuhwjHZU-13" value="" style="edgeStyle=entityRelationEdgeStyle;startArrow=none;endArrow=none;segment=10;curved=1;sourcePerimeterSpacing=0;targetPerimeterSpacing=0;rounded=0;exitX=1;exitY=1;exitDx=0;exitDy=0;" parent="KZ37n1IrzKlXpWWZrorU-3" source="N_6x5Vvvwgn9JuhwjHZU-10" target="N_6x5Vvvwgn9JuhwjHZU-14" edge="1" visible="0">
          <mxGeometry relative="1" as="geometry">
            <mxPoint x="1887.56" y="255" as="sourcePoint" />
          </mxGeometry>
        </mxCell>
        <mxCell id="N_6x5Vvvwgn9JuhwjHZU-14" value="select" style="whiteSpace=wrap;html=1;shape=partialRectangle;top=0;left=0;bottom=1;right=0;points=[[0,1],[1,1]];fillColor=none;align=center;verticalAlign=bottom;routingCenterY=0.5;snapToPoint=1;recursiveResize=0;autosize=1;treeFolding=1;treeMoving=1;newEdgeStyle={&quot;edgeStyle&quot;:&quot;entityRelationEdgeStyle&quot;,&quot;startArrow&quot;:&quot;none&quot;,&quot;endArrow&quot;:&quot;none&quot;,&quot;segment&quot;:10,&quot;curved&quot;:1,&quot;sourcePerimeterSpacing&quot;:0,&quot;targetPerimeterSpacing&quot;:0};" parent="KZ37n1IrzKlXpWWZrorU-3" vertex="1" visible="0">
          <mxGeometry x="2403.56" y="537" width="66" height="26" as="geometry" />
        </mxCell>
        <mxCell id="N_6x5Vvvwgn9JuhwjHZU-15" value="" style="edgeStyle=entityRelationEdgeStyle;startArrow=none;endArrow=none;segment=10;curved=1;sourcePerimeterSpacing=0;targetPerimeterSpacing=0;rounded=0;exitX=1;exitY=1;exitDx=0;exitDy=0;" parent="KZ37n1IrzKlXpWWZrorU-3" source="N_6x5Vvvwgn9JuhwjHZU-10" target="N_6x5Vvvwgn9JuhwjHZU-16" edge="1" visible="0">
          <mxGeometry relative="1" as="geometry">
            <mxPoint x="2028.56" y="402" as="sourcePoint" />
          </mxGeometry>
        </mxCell>
        <mxCell id="N_6x5Vvvwgn9JuhwjHZU-16" value="poll" style="whiteSpace=wrap;html=1;shape=partialRectangle;top=0;left=0;bottom=1;right=0;points=[[0,1],[1,1]];fillColor=none;align=center;verticalAlign=bottom;routingCenterY=0.5;snapToPoint=1;recursiveResize=0;autosize=1;treeFolding=1;treeMoving=1;newEdgeStyle={&quot;edgeStyle&quot;:&quot;entityRelationEdgeStyle&quot;,&quot;startArrow&quot;:&quot;none&quot;,&quot;endArrow&quot;:&quot;none&quot;,&quot;segment&quot;:10,&quot;curved&quot;:1,&quot;sourcePerimeterSpacing&quot;:0,&quot;targetPerimeterSpacing&quot;:0};" parent="KZ37n1IrzKlXpWWZrorU-3" vertex="1" visible="0">
          <mxGeometry x="2409.56" y="573" width="54" height="26" as="geometry" />
        </mxCell>
        <mxCell id="N_6x5Vvvwgn9JuhwjHZU-17" value="" style="edgeStyle=entityRelationEdgeStyle;startArrow=none;endArrow=none;segment=10;curved=1;sourcePerimeterSpacing=0;targetPerimeterSpacing=0;rounded=0;exitX=1;exitY=1;exitDx=0;exitDy=0;" parent="KZ37n1IrzKlXpWWZrorU-3" source="N_6x5Vvvwgn9JuhwjHZU-10" target="N_6x5Vvvwgn9JuhwjHZU-18" edge="1" visible="0">
          <mxGeometry relative="1" as="geometry">
            <mxPoint x="2028.56" y="402" as="sourcePoint" />
          </mxGeometry>
        </mxCell>
        <mxCell id="N_6x5Vvvwgn9JuhwjHZU-18" value="epoll" style="whiteSpace=wrap;html=1;shape=partialRectangle;top=0;left=0;bottom=1;right=0;points=[[0,1],[1,1]];fillColor=none;align=center;verticalAlign=bottom;routingCenterY=0.5;snapToPoint=1;recursiveResize=0;autosize=1;treeFolding=1;treeMoving=1;newEdgeStyle={&quot;edgeStyle&quot;:&quot;entityRelationEdgeStyle&quot;,&quot;startArrow&quot;:&quot;none&quot;,&quot;endArrow&quot;:&quot;none&quot;,&quot;segment&quot;:10,&quot;curved&quot;:1,&quot;sourcePerimeterSpacing&quot;:0,&quot;targetPerimeterSpacing&quot;:0};" parent="KZ37n1IrzKlXpWWZrorU-3" vertex="1" visible="0">
          <mxGeometry x="2406.56" y="609" width="60" height="26" as="geometry" />
        </mxCell>
        <mxCell id="N_6x5Vvvwgn9JuhwjHZU-19" value="左右值引用" style="whiteSpace=wrap;html=1;shape=partialRectangle;top=0;left=0;bottom=1;right=0;points=[[0,1],[1,1]];fillColor=none;align=center;verticalAlign=bottom;routingCenterY=0.5;snapToPoint=1;recursiveResize=0;autosize=1;treeFolding=1;treeMoving=1;newEdgeStyle={&quot;edgeStyle&quot;:&quot;entityRelationEdgeStyle&quot;,&quot;startArrow&quot;:&quot;none&quot;,&quot;endArrow&quot;:&quot;none&quot;,&quot;segment&quot;:10,&quot;curved&quot;:1,&quot;sourcePerimeterSpacing&quot;:0,&quot;targetPerimeterSpacing&quot;:0};" parent="KZ37n1IrzKlXpWWZrorU-3" vertex="1" visible="0">
          <mxGeometry x="1953.06" y="324" width="95" height="26" as="geometry" />
        </mxCell>
        <mxCell id="N_6x5Vvvwgn9JuhwjHZU-20" value="" style="edgeStyle=entityRelationEdgeStyle;startArrow=none;endArrow=none;segment=10;curved=1;sourcePerimeterSpacing=0;targetPerimeterSpacing=0;rounded=0;exitX=1;exitY=0.5;exitDx=0;exitDy=0;" parent="KZ37n1IrzKlXpWWZrorU-3" source="KZ37n1IrzKlXpWWZrorU-9" target="N_6x5Vvvwgn9JuhwjHZU-19" edge="1" visible="0">
          <mxGeometry relative="1" as="geometry">
            <mxPoint x="1875.06" y="339" as="sourcePoint" />
          </mxGeometry>
        </mxCell>
        <mxCell id="N_6x5Vvvwgn9JuhwjHZU-21" value="" style="edgeStyle=entityRelationEdgeStyle;startArrow=none;endArrow=none;segment=10;curved=1;sourcePerimeterSpacing=0;targetPerimeterSpacing=0;rounded=0;exitX=1;exitY=0.5;exitDx=0;exitDy=0;" parent="KZ37n1IrzKlXpWWZrorU-3" source="KZ37n1IrzKlXpWWZrorU-9" target="N_6x5Vvvwgn9JuhwjHZU-22" edge="1" visible="0">
          <mxGeometry relative="1" as="geometry">
            <mxPoint x="1493.06" y="105" as="sourcePoint" />
          </mxGeometry>
        </mxCell>
        <mxCell id="N_6x5Vvvwgn9JuhwjHZU-22" value="STL Function" style="whiteSpace=wrap;html=1;shape=partialRectangle;top=0;left=0;bottom=1;right=0;points=[[0,1],[1,1]];fillColor=none;align=center;verticalAlign=bottom;routingCenterY=0.5;snapToPoint=1;recursiveResize=0;autosize=1;treeFolding=1;treeMoving=1;newEdgeStyle={&quot;edgeStyle&quot;:&quot;entityRelationEdgeStyle&quot;,&quot;startArrow&quot;:&quot;none&quot;,&quot;endArrow&quot;:&quot;none&quot;,&quot;segment&quot;:10,&quot;curved&quot;:1,&quot;sourcePerimeterSpacing&quot;:0,&quot;targetPerimeterSpacing&quot;:0};" parent="KZ37n1IrzKlXpWWZrorU-3" vertex="1" visible="0">
          <mxGeometry x="1948.06" y="360" width="106" height="26" as="geometry" />
        </mxCell>
        <mxCell id="N_6x5Vvvwgn9JuhwjHZU-23" value="" style="edgeStyle=entityRelationEdgeStyle;startArrow=none;endArrow=none;segment=10;curved=1;sourcePerimeterSpacing=0;targetPerimeterSpacing=0;rounded=0;exitX=1;exitY=1;exitDx=0;exitDy=0;" parent="KZ37n1IrzKlXpWWZrorU-3" source="KZ37n1IrzKlXpWWZrorU-52" target="N_6x5Vvvwgn9JuhwjHZU-24" edge="1" visible="0">
          <mxGeometry relative="1" as="geometry">
            <mxPoint x="1820.06" y="107" as="sourcePoint" />
            <Array as="points">
              <mxPoint x="963.06" y="-28.5" />
            </Array>
          </mxGeometry>
        </mxCell>
        <UserObject label="lc3007" link="https://leetcode.cn/problems/maximum-number-that-sum-of-the-prices-is-less-than-or-equal-to-k/description/" id="N_6x5Vvvwgn9JuhwjHZU-24">
          <mxCell style="whiteSpace=wrap;html=1;shape=partialRectangle;top=0;left=0;bottom=1;right=0;points=[[0,1],[1,1]];fillColor=none;align=center;verticalAlign=bottom;routingCenterY=0.5;snapToPoint=1;recursiveResize=0;autosize=1;treeFolding=1;treeMoving=1;newEdgeStyle={&quot;edgeStyle&quot;:&quot;entityRelationEdgeStyle&quot;,&quot;startArrow&quot;:&quot;none&quot;,&quot;endArrow&quot;:&quot;none&quot;,&quot;segment&quot;:10,&quot;curved&quot;:1,&quot;sourcePerimeterSpacing&quot;:0,&quot;targetPerimeterSpacing&quot;:0};" parent="KZ37n1IrzKlXpWWZrorU-3" vertex="1" visible="0">
            <mxGeometry x="2491.06" y="393" width="70" height="26" as="geometry" />
          </mxCell>
        </UserObject>
        <mxCell id="N_6x5Vvvwgn9JuhwjHZU-25" value="" style="edgeStyle=entityRelationEdgeStyle;rounded=0;orthogonalLoop=1;jettySize=auto;html=1;startArrow=none;endArrow=none;segment=10;curved=1;sourcePerimeterSpacing=0;targetPerimeterSpacing=0;" parent="KZ37n1IrzKlXpWWZrorU-3" source="KZ37n1IrzKlXpWWZrorU-8" target="N_6x5Vvvwgn9JuhwjHZU-26" edge="1">
          <mxGeometry relative="1" as="geometry">
            <mxPoint x="1342.06" y="34" as="sourcePoint" />
          </mxGeometry>
        </mxCell>
        <mxCell id="N_6x5Vvvwgn9JuhwjHZU-26" value="数据库" style="ellipse;whiteSpace=wrap;html=1;align=center;treeFolding=1;treeMoving=1;newEdgeStyle={&quot;edgeStyle&quot;:&quot;entityRelationEdgeStyle&quot;,&quot;startArrow&quot;:&quot;none&quot;,&quot;endArrow&quot;:&quot;none&quot;,&quot;segment&quot;:10,&quot;curved&quot;:1,&quot;sourcePerimeterSpacing&quot;:0,&quot;targetPerimeterSpacing&quot;:0};" parent="KZ37n1IrzKlXpWWZrorU-3" vertex="1">
          <mxGeometry x="1378.06" y="503" width="100" height="40" as="geometry" />
        </mxCell>
        <mxCell id="N_6x5Vvvwgn9JuhwjHZU-29" value="mysql" style="whiteSpace=wrap;html=1;shape=partialRectangle;top=0;left=0;bottom=1;right=0;points=[[0,1],[1,1]];fillColor=none;align=center;verticalAlign=bottom;routingCenterY=0.5;snapToPoint=1;recursiveResize=0;autosize=1;treeFolding=1;treeMoving=1;newEdgeStyle={&quot;edgeStyle&quot;:&quot;entityRelationEdgeStyle&quot;,&quot;startArrow&quot;:&quot;none&quot;,&quot;endArrow&quot;:&quot;none&quot;,&quot;segment&quot;:10,&quot;curved&quot;:1,&quot;sourcePerimeterSpacing&quot;:0,&quot;targetPerimeterSpacing&quot;:0};" parent="KZ37n1IrzKlXpWWZrorU-3" vertex="1" collapsed="1">
          <mxGeometry x="1118" y="436.5" width="66" height="26" as="geometry" />
        </mxCell>
        <mxCell id="N_6x5Vvvwgn9JuhwjHZU-30" value="" style="edgeStyle=entityRelationEdgeStyle;startArrow=none;endArrow=none;segment=10;curved=1;sourcePerimeterSpacing=0;targetPerimeterSpacing=0;rounded=0;exitX=0;exitY=0.5;exitDx=0;exitDy=0;" parent="KZ37n1IrzKlXpWWZrorU-3" source="N_6x5Vvvwgn9JuhwjHZU-26" target="N_6x5Vvvwgn9JuhwjHZU-29" edge="1">
          <mxGeometry relative="1" as="geometry">
            <mxPoint x="1099" y="563" as="sourcePoint" />
          </mxGeometry>
        </mxCell>
        <mxCell id="N_6x5Vvvwgn9JuhwjHZU-31" value="" style="edgeStyle=entityRelationEdgeStyle;startArrow=none;endArrow=none;segment=10;curved=1;sourcePerimeterSpacing=0;targetPerimeterSpacing=0;rounded=0;exitX=0;exitY=1;exitDx=0;exitDy=0;" parent="KZ37n1IrzKlXpWWZrorU-3" source="N_6x5Vvvwgn9JuhwjHZU-29" target="N_6x5Vvvwgn9JuhwjHZU-32" edge="1" visible="0">
          <mxGeometry relative="1" as="geometry">
            <mxPoint x="149" y="-30.5" as="sourcePoint" />
          </mxGeometry>
        </mxCell>
        <mxCell id="N_6x5Vvvwgn9JuhwjHZU-32" value="SQL语言" style="whiteSpace=wrap;html=1;shape=partialRectangle;top=0;left=0;bottom=1;right=0;points=[[0,1],[1,1]];fillColor=none;align=center;verticalAlign=bottom;routingCenterY=0.5;snapToPoint=1;recursiveResize=0;autosize=1;treeFolding=1;treeMoving=1;newEdgeStyle={&quot;edgeStyle&quot;:&quot;entityRelationEdgeStyle&quot;,&quot;startArrow&quot;:&quot;none&quot;,&quot;endArrow&quot;:&quot;none&quot;,&quot;segment&quot;:10,&quot;curved&quot;:1,&quot;sourcePerimeterSpacing&quot;:0,&quot;targetPerimeterSpacing&quot;:0};" parent="KZ37n1IrzKlXpWWZrorU-3" vertex="1" collapsed="1" visible="0">
          <mxGeometry x="911" y="385.5" width="83" height="26" as="geometry" />
        </mxCell>
        <mxCell id="lpSecpezopNHBZ37qrY9-1" value="" style="edgeStyle=entityRelationEdgeStyle;startArrow=none;endArrow=none;segment=10;curved=1;sourcePerimeterSpacing=0;targetPerimeterSpacing=0;rounded=0;exitX=0;exitY=1;exitDx=0;exitDy=0;" edge="1" visible="0" target="lpSecpezopNHBZ37qrY9-2" source="N_6x5Vvvwgn9JuhwjHZU-29" parent="KZ37n1IrzKlXpWWZrorU-3">
          <mxGeometry relative="1" as="geometry">
            <mxPoint x="-57" y="-17.5" as="sourcePoint" />
          </mxGeometry>
        </mxCell>
        <mxCell id="lpSecpezopNHBZ37qrY9-2" value="MySQL内置函数" style="whiteSpace=wrap;html=1;shape=partialRectangle;top=0;left=0;bottom=1;right=0;points=[[0,1],[1,1]];fillColor=none;align=center;verticalAlign=bottom;routingCenterY=0.5;snapToPoint=1;recursiveResize=0;autosize=1;treeFolding=1;treeMoving=1;newEdgeStyle={&quot;edgeStyle&quot;:&quot;entityRelationEdgeStyle&quot;,&quot;startArrow&quot;:&quot;none&quot;,&quot;endArrow&quot;:&quot;none&quot;,&quot;segment&quot;:10,&quot;curved&quot;:1,&quot;sourcePerimeterSpacing&quot;:0,&quot;targetPerimeterSpacing&quot;:0};" vertex="1" visible="0" collapsed="1" parent="KZ37n1IrzKlXpWWZrorU-3">
          <mxGeometry x="881" y="499.5" width="123" height="26" as="geometry" />
        </mxCell>
        <mxCell id="lpSecpezopNHBZ37qrY9-3" value="" style="edgeStyle=entityRelationEdgeStyle;startArrow=none;endArrow=none;segment=10;curved=1;sourcePerimeterSpacing=0;targetPerimeterSpacing=0;rounded=0;exitX=0;exitY=1;exitDx=0;exitDy=0;" edge="1" visible="0" target="lpSecpezopNHBZ37qrY9-4" source="N_6x5Vvvwgn9JuhwjHZU-29" parent="KZ37n1IrzKlXpWWZrorU-3">
          <mxGeometry relative="1" as="geometry">
            <mxPoint x="-119" y="-2.5" as="sourcePoint" />
          </mxGeometry>
        </mxCell>
        <mxCell id="lpSecpezopNHBZ37qrY9-4" value="MySQL基本概念" style="whiteSpace=wrap;html=1;shape=partialRectangle;top=0;left=0;bottom=1;right=0;points=[[0,1],[1,1]];fillColor=none;align=center;verticalAlign=bottom;routingCenterY=0.5;snapToPoint=1;recursiveResize=0;autosize=1;treeFolding=1;treeMoving=1;newEdgeStyle={&quot;edgeStyle&quot;:&quot;entityRelationEdgeStyle&quot;,&quot;startArrow&quot;:&quot;none&quot;,&quot;endArrow&quot;:&quot;none&quot;,&quot;segment&quot;:10,&quot;curved&quot;:1,&quot;sourcePerimeterSpacing&quot;:0,&quot;targetPerimeterSpacing&quot;:0};" vertex="1" visible="0" collapsed="1" parent="KZ37n1IrzKlXpWWZrorU-3">
          <mxGeometry x="897" y="439.5" width="123" height="26" as="geometry" />
        </mxCell>
        <mxCell id="lpSecpezopNHBZ37qrY9-5" value="" style="edgeStyle=entityRelationEdgeStyle;startArrow=none;endArrow=none;segment=10;curved=1;sourcePerimeterSpacing=0;targetPerimeterSpacing=0;rounded=0;" edge="1" visible="0" target="lpSecpezopNHBZ37qrY9-6" source="N_6x5Vvvwgn9JuhwjHZU-32" parent="KZ37n1IrzKlXpWWZrorU-3">
          <mxGeometry relative="1" as="geometry">
            <mxPoint x="-119" y="-2.5" as="sourcePoint" />
          </mxGeometry>
        </mxCell>
        <mxCell id="lpSecpezopNHBZ37qrY9-6" value="增" style="whiteSpace=wrap;html=1;shape=partialRectangle;top=0;left=0;bottom=1;right=0;points=[[0,1],[1,1]];fillColor=none;align=center;verticalAlign=bottom;routingCenterY=0.5;snapToPoint=1;recursiveResize=0;autosize=1;treeFolding=1;treeMoving=1;newEdgeStyle={&quot;edgeStyle&quot;:&quot;entityRelationEdgeStyle&quot;,&quot;startArrow&quot;:&quot;none&quot;,&quot;endArrow&quot;:&quot;none&quot;,&quot;segment&quot;:10,&quot;curved&quot;:1,&quot;sourcePerimeterSpacing&quot;:0,&quot;targetPerimeterSpacing&quot;:0};" vertex="1" collapsed="1" visible="0" parent="KZ37n1IrzKlXpWWZrorU-3">
          <mxGeometry x="722" y="312.5" width="47" height="26" as="geometry" />
        </mxCell>
        <mxCell id="lpSecpezopNHBZ37qrY9-7" value="" style="edgeStyle=entityRelationEdgeStyle;startArrow=none;endArrow=none;segment=10;curved=1;sourcePerimeterSpacing=0;targetPerimeterSpacing=0;rounded=0;exitX=0.031;exitY=1;exitDx=0;exitDy=0;exitPerimeter=0;" edge="1" visible="0" target="lpSecpezopNHBZ37qrY9-8" source="N_6x5Vvvwgn9JuhwjHZU-32" parent="KZ37n1IrzKlXpWWZrorU-3">
          <mxGeometry relative="1" as="geometry">
            <mxPoint x="-366" y="-53.5" as="sourcePoint" />
          </mxGeometry>
        </mxCell>
        <mxCell id="lpSecpezopNHBZ37qrY9-8" value="删" style="whiteSpace=wrap;html=1;shape=partialRectangle;top=0;left=0;bottom=1;right=0;points=[[0,1],[1,1]];fillColor=none;align=center;verticalAlign=bottom;routingCenterY=0.5;snapToPoint=1;recursiveResize=0;autosize=1;treeFolding=1;treeMoving=1;newEdgeStyle={&quot;edgeStyle&quot;:&quot;entityRelationEdgeStyle&quot;,&quot;startArrow&quot;:&quot;none&quot;,&quot;endArrow&quot;:&quot;none&quot;,&quot;segment&quot;:10,&quot;curved&quot;:1,&quot;sourcePerimeterSpacing&quot;:0,&quot;targetPerimeterSpacing&quot;:0};" vertex="1" collapsed="1" visible="0" parent="KZ37n1IrzKlXpWWZrorU-3">
          <mxGeometry x="727" y="349.5" width="47" height="26" as="geometry" />
        </mxCell>
        <mxCell id="lpSecpezopNHBZ37qrY9-9" value="" style="edgeStyle=entityRelationEdgeStyle;startArrow=none;endArrow=none;segment=10;curved=1;sourcePerimeterSpacing=0;targetPerimeterSpacing=0;rounded=0;exitX=0;exitY=1;exitDx=0;exitDy=0;" edge="1" visible="0" target="lpSecpezopNHBZ37qrY9-10" source="lpSecpezopNHBZ37qrY9-6" parent="KZ37n1IrzKlXpWWZrorU-3">
          <mxGeometry relative="1" as="geometry">
            <mxPoint x="-414" y="-17.5" as="sourcePoint" />
          </mxGeometry>
        </mxCell>
        <mxCell id="lpSecpezopNHBZ37qrY9-10" value="INSERT INTO &amp;lt;表&amp;gt; [(&amp;lt;列1&amp;gt;,...)] VALUES (&amp;lt;列1数据&amp;gt;,...);" style="whiteSpace=wrap;html=1;shape=partialRectangle;top=0;left=0;bottom=1;right=0;points=[[0,1],[1,1]];fillColor=none;align=center;verticalAlign=bottom;routingCenterY=0.5;snapToPoint=1;recursiveResize=0;autosize=1;treeFolding=1;treeMoving=1;newEdgeStyle={&quot;edgeStyle&quot;:&quot;entityRelationEdgeStyle&quot;,&quot;startArrow&quot;:&quot;none&quot;,&quot;endArrow&quot;:&quot;none&quot;,&quot;segment&quot;:10,&quot;curved&quot;:1,&quot;sourcePerimeterSpacing&quot;:0,&quot;targetPerimeterSpacing&quot;:0};" vertex="1" collapsed="1" visible="0" parent="KZ37n1IrzKlXpWWZrorU-3">
          <mxGeometry x="260" y="307.5" width="338" height="26" as="geometry" />
        </mxCell>
        <mxCell id="lpSecpezopNHBZ37qrY9-11" value="" style="edgeStyle=entityRelationEdgeStyle;startArrow=none;endArrow=none;segment=10;curved=1;sourcePerimeterSpacing=0;targetPerimeterSpacing=0;rounded=0;exitX=0.012;exitY=1;exitDx=0;exitDy=0;exitPerimeter=0;" edge="1" visible="0" target="lpSecpezopNHBZ37qrY9-12" source="N_6x5Vvvwgn9JuhwjHZU-32" parent="KZ37n1IrzKlXpWWZrorU-3">
          <mxGeometry relative="1" as="geometry">
            <mxPoint x="-414" y="-17.5" as="sourcePoint" />
          </mxGeometry>
        </mxCell>
        <mxCell id="lpSecpezopNHBZ37qrY9-12" value="改" style="whiteSpace=wrap;html=1;shape=partialRectangle;top=0;left=0;bottom=1;right=0;points=[[0,1],[1,1]];fillColor=none;align=center;verticalAlign=bottom;routingCenterY=0.5;snapToPoint=1;recursiveResize=0;autosize=1;treeFolding=1;treeMoving=1;newEdgeStyle={&quot;edgeStyle&quot;:&quot;entityRelationEdgeStyle&quot;,&quot;startArrow&quot;:&quot;none&quot;,&quot;endArrow&quot;:&quot;none&quot;,&quot;segment&quot;:10,&quot;curved&quot;:1,&quot;sourcePerimeterSpacing&quot;:0,&quot;targetPerimeterSpacing&quot;:0};" vertex="1" collapsed="1" visible="0" parent="KZ37n1IrzKlXpWWZrorU-3">
          <mxGeometry x="727" y="385.5" width="47" height="26" as="geometry" />
        </mxCell>
        <mxCell id="lpSecpezopNHBZ37qrY9-13" value="" style="edgeStyle=entityRelationEdgeStyle;startArrow=none;endArrow=none;segment=10;curved=1;sourcePerimeterSpacing=0;targetPerimeterSpacing=0;rounded=0;exitX=0.024;exitY=1.006;exitDx=0;exitDy=0;exitPerimeter=0;" edge="1" visible="0" target="lpSecpezopNHBZ37qrY9-14" source="N_6x5Vvvwgn9JuhwjHZU-32" parent="KZ37n1IrzKlXpWWZrorU-3">
          <mxGeometry relative="1" as="geometry">
            <mxPoint x="-414" y="-17.5" as="sourcePoint" />
          </mxGeometry>
        </mxCell>
        <mxCell id="lpSecpezopNHBZ37qrY9-14" value="查" style="whiteSpace=wrap;html=1;shape=partialRectangle;top=0;left=0;bottom=1;right=0;points=[[0,1],[1,1]];fillColor=none;align=center;verticalAlign=bottom;routingCenterY=0.5;snapToPoint=1;recursiveResize=0;autosize=1;treeFolding=1;treeMoving=1;newEdgeStyle={&quot;edgeStyle&quot;:&quot;entityRelationEdgeStyle&quot;,&quot;startArrow&quot;:&quot;none&quot;,&quot;endArrow&quot;:&quot;none&quot;,&quot;segment&quot;:10,&quot;curved&quot;:1,&quot;sourcePerimeterSpacing&quot;:0,&quot;targetPerimeterSpacing&quot;:0};" vertex="1" collapsed="1" visible="0" parent="KZ37n1IrzKlXpWWZrorU-3">
          <mxGeometry x="727" y="421.5" width="47" height="26" as="geometry" />
        </mxCell>
        <mxCell id="lpSecpezopNHBZ37qrY9-15" value="" style="edgeStyle=entityRelationEdgeStyle;startArrow=none;endArrow=none;segment=10;curved=1;sourcePerimeterSpacing=0;targetPerimeterSpacing=0;rounded=0;exitX=0;exitY=1;exitDx=0;exitDy=0;" edge="1" visible="0" target="lpSecpezopNHBZ37qrY9-16" source="lpSecpezopNHBZ37qrY9-8" parent="KZ37n1IrzKlXpWWZrorU-3">
          <mxGeometry relative="1" as="geometry">
            <mxPoint x="-374" y="-17.5" as="sourcePoint" />
          </mxGeometry>
        </mxCell>
        <mxCell id="lpSecpezopNHBZ37qrY9-16" value="DELETE FROM &amp;lt;表&amp;gt; WHERE &amp;lt;条件&amp;gt;;" style="whiteSpace=wrap;html=1;shape=partialRectangle;top=0;left=0;bottom=1;right=0;points=[[0,1],[1,1]];fillColor=none;align=center;verticalAlign=bottom;routingCenterY=0.5;snapToPoint=1;recursiveResize=0;autosize=1;treeFolding=1;treeMoving=1;newEdgeStyle={&quot;edgeStyle&quot;:&quot;entityRelationEdgeStyle&quot;,&quot;startArrow&quot;:&quot;none&quot;,&quot;endArrow&quot;:&quot;none&quot;,&quot;segment&quot;:10,&quot;curved&quot;:1,&quot;sourcePerimeterSpacing&quot;:0,&quot;targetPerimeterSpacing&quot;:0};" vertex="1" collapsed="1" visible="0" parent="KZ37n1IrzKlXpWWZrorU-3">
          <mxGeometry x="260" y="354.5" width="242" height="26" as="geometry" />
        </mxCell>
        <mxCell id="lpSecpezopNHBZ37qrY9-17" value="" style="edgeStyle=entityRelationEdgeStyle;startArrow=none;endArrow=none;segment=10;curved=1;sourcePerimeterSpacing=0;targetPerimeterSpacing=0;rounded=0;exitX=0;exitY=1;exitDx=0;exitDy=0;" edge="1" visible="0" target="lpSecpezopNHBZ37qrY9-18" source="lpSecpezopNHBZ37qrY9-12" parent="KZ37n1IrzKlXpWWZrorU-3">
          <mxGeometry relative="1" as="geometry">
            <mxPoint x="-374" y="-17.5" as="sourcePoint" />
          </mxGeometry>
        </mxCell>
        <mxCell id="lpSecpezopNHBZ37qrY9-18" value="UPDATE &amp;lt;表&amp;gt; SET &amp;lt;列&amp;gt;=&amp;lt;列值&amp;gt;,... WHERE &amp;lt;条件&amp;gt;;" style="whiteSpace=wrap;html=1;shape=partialRectangle;top=0;left=0;bottom=1;right=0;points=[[0,1],[1,1]];fillColor=none;align=center;verticalAlign=bottom;routingCenterY=0.5;snapToPoint=1;recursiveResize=0;autosize=1;treeFolding=1;treeMoving=1;newEdgeStyle={&quot;edgeStyle&quot;:&quot;entityRelationEdgeStyle&quot;,&quot;startArrow&quot;:&quot;none&quot;,&quot;endArrow&quot;:&quot;none&quot;,&quot;segment&quot;:10,&quot;curved&quot;:1,&quot;sourcePerimeterSpacing&quot;:0,&quot;targetPerimeterSpacing&quot;:0};" vertex="1" collapsed="1" visible="0" parent="KZ37n1IrzKlXpWWZrorU-3">
          <mxGeometry x="260" y="395.5" width="319" height="26" as="geometry" />
        </mxCell>
        <mxCell id="lpSecpezopNHBZ37qrY9-19" value="" style="edgeStyle=entityRelationEdgeStyle;startArrow=none;endArrow=none;segment=10;curved=1;sourcePerimeterSpacing=0;targetPerimeterSpacing=0;rounded=0;exitX=0;exitY=1;exitDx=0;exitDy=0;" edge="1" visible="0" target="lpSecpezopNHBZ37qrY9-20" source="lpSecpezopNHBZ37qrY9-14" parent="KZ37n1IrzKlXpWWZrorU-3">
          <mxGeometry relative="1" as="geometry">
            <mxPoint x="-374" y="-17.5" as="sourcePoint" />
          </mxGeometry>
        </mxCell>
        <mxCell id="lpSecpezopNHBZ37qrY9-20" value="SELECT [DISTINCT | ALL]&amp;nbsp;&lt;div&gt;&lt;div style=&quot;&quot;&gt;&lt;span style=&quot;background-color: transparent; color: light-dark(rgb(0, 0, 0), rgb(255, 255, 255));&quot;&gt;&amp;lt;列名...&amp;gt; | &amp;lt;聚合函数&amp;gt;&amp;nbsp;&lt;/span&gt;&lt;/div&gt;&lt;div&gt;FROM &amp;lt;表名&amp;gt;&amp;nbsp;&lt;/div&gt;&lt;div&gt;[GROUP BY &amp;lt;列名...&amp;gt;]&amp;nbsp;&lt;/div&gt;&lt;div&gt;[HAVING &amp;lt;条件...&amp;gt;]&amp;nbsp;&lt;/div&gt;&lt;div&gt;[ORDER BY &amp;lt;结果列...&amp;gt; [, ...] ASC|DESC]&amp;nbsp;&lt;/div&gt;&lt;div&gt;[LIMIT &amp;lt;行数&amp;gt; [OFFSET &amp;lt;偏移&amp;gt;]]&amp;nbsp;&lt;/div&gt;&lt;div&gt;[UNION [ALL]...]&amp;nbsp;&lt;span style=&quot;background-color: transparent; color: light-dark(rgb(0, 0, 0), rgb(255, 255, 255));&quot;&gt;[其他 SELECT 子句 ...];&lt;/span&gt;&lt;/div&gt;&lt;/div&gt;" style="whiteSpace=wrap;html=1;shape=partialRectangle;top=0;left=0;bottom=1;right=0;points=[[0,1],[1,1]];fillColor=none;align=left;verticalAlign=bottom;routingCenterY=0.5;snapToPoint=1;recursiveResize=0;autosize=1;treeFolding=1;treeMoving=1;newEdgeStyle={&quot;edgeStyle&quot;:&quot;entityRelationEdgeStyle&quot;,&quot;startArrow&quot;:&quot;none&quot;,&quot;endArrow&quot;:&quot;none&quot;,&quot;segment&quot;:10,&quot;curved&quot;:1,&quot;sourcePerimeterSpacing&quot;:0,&quot;targetPerimeterSpacing&quot;:0};" vertex="1" collapsed="1" visible="0" parent="KZ37n1IrzKlXpWWZrorU-3">
          <mxGeometry x="260" y="433.5" width="262" height="127" as="geometry" />
        </mxCell>
        <mxCell id="lpSecpezopNHBZ37qrY9-24" value="" style="edgeStyle=entityRelationEdgeStyle;startArrow=none;endArrow=none;segment=10;curved=1;sourcePerimeterSpacing=0;targetPerimeterSpacing=0;rounded=0;exitX=0;exitY=1;exitDx=0;exitDy=0;" edge="1" visible="0" target="lpSecpezopNHBZ37qrY9-25" source="lpSecpezopNHBZ37qrY9-4" parent="KZ37n1IrzKlXpWWZrorU-3">
          <mxGeometry relative="1" as="geometry">
            <mxPoint x="-1142" y="-521.5" as="sourcePoint" />
          </mxGeometry>
        </mxCell>
        <mxCell id="lpSecpezopNHBZ37qrY9-25" value="数据类型" style="whiteSpace=wrap;html=1;shape=partialRectangle;top=0;left=0;bottom=1;right=0;points=[[0,1],[1,1]];fillColor=none;align=center;verticalAlign=bottom;routingCenterY=0.5;snapToPoint=1;recursiveResize=0;autosize=1;treeFolding=1;treeMoving=1;newEdgeStyle={&quot;edgeStyle&quot;:&quot;entityRelationEdgeStyle&quot;,&quot;startArrow&quot;:&quot;none&quot;,&quot;endArrow&quot;:&quot;none&quot;,&quot;segment&quot;:10,&quot;curved&quot;:1,&quot;sourcePerimeterSpacing&quot;:0,&quot;targetPerimeterSpacing&quot;:0};" vertex="1" visible="0" parent="KZ37n1IrzKlXpWWZrorU-3">
          <mxGeometry x="685" y="391" width="83" height="26" as="geometry" />
        </mxCell>
        <mxCell id="lpSecpezopNHBZ37qrY9-26" value="" style="edgeStyle=entityRelationEdgeStyle;startArrow=none;endArrow=none;segment=10;curved=1;sourcePerimeterSpacing=0;targetPerimeterSpacing=0;rounded=0;exitX=0;exitY=1;exitDx=0;exitDy=0;" edge="1" visible="0" target="lpSecpezopNHBZ37qrY9-27" source="lpSecpezopNHBZ37qrY9-4" parent="KZ37n1IrzKlXpWWZrorU-3">
          <mxGeometry relative="1" as="geometry">
            <mxPoint x="-1363" y="-518.5" as="sourcePoint" />
          </mxGeometry>
        </mxCell>
        <mxCell id="lpSecpezopNHBZ37qrY9-27" value="数据库(scheme)操作" style="whiteSpace=wrap;html=1;shape=partialRectangle;top=0;left=0;bottom=1;right=0;points=[[0,1],[1,1]];fillColor=none;align=center;verticalAlign=bottom;routingCenterY=0.5;snapToPoint=1;recursiveResize=0;autosize=1;treeFolding=1;treeMoving=1;newEdgeStyle={&quot;edgeStyle&quot;:&quot;entityRelationEdgeStyle&quot;,&quot;startArrow&quot;:&quot;none&quot;,&quot;endArrow&quot;:&quot;none&quot;,&quot;segment&quot;:10,&quot;curved&quot;:1,&quot;sourcePerimeterSpacing&quot;:0,&quot;targetPerimeterSpacing&quot;:0};" vertex="1" visible="0" parent="KZ37n1IrzKlXpWWZrorU-3">
          <mxGeometry x="654" y="429.5" width="145" height="26" as="geometry" />
        </mxCell>
        <mxCell id="lpSecpezopNHBZ37qrY9-28" value="" style="edgeStyle=entityRelationEdgeStyle;startArrow=none;endArrow=none;segment=10;curved=1;sourcePerimeterSpacing=0;targetPerimeterSpacing=0;rounded=0;exitX=0;exitY=1;exitDx=0;exitDy=0;" edge="1" visible="0" target="lpSecpezopNHBZ37qrY9-29" source="lpSecpezopNHBZ37qrY9-4" parent="KZ37n1IrzKlXpWWZrorU-3">
          <mxGeometry relative="1" as="geometry">
            <mxPoint x="-1363" y="-518.5" as="sourcePoint" />
          </mxGeometry>
        </mxCell>
        <mxCell id="lpSecpezopNHBZ37qrY9-29" value="表操作" style="whiteSpace=wrap;html=1;shape=partialRectangle;top=0;left=0;bottom=1;right=0;points=[[0,1],[1,1]];fillColor=none;align=center;verticalAlign=bottom;routingCenterY=0.5;snapToPoint=1;recursiveResize=0;autosize=1;treeFolding=1;treeMoving=1;newEdgeStyle={&quot;edgeStyle&quot;:&quot;entityRelationEdgeStyle&quot;,&quot;startArrow&quot;:&quot;none&quot;,&quot;endArrow&quot;:&quot;none&quot;,&quot;segment&quot;:10,&quot;curved&quot;:1,&quot;sourcePerimeterSpacing&quot;:0,&quot;targetPerimeterSpacing&quot;:0};" vertex="1" visible="0" parent="KZ37n1IrzKlXpWWZrorU-3">
          <mxGeometry x="678" y="469.5" width="71" height="26" as="geometry" />
        </mxCell>
        <mxCell id="lpSecpezopNHBZ37qrY9-30" value="" style="edgeStyle=entityRelationEdgeStyle;startArrow=none;endArrow=none;segment=10;curved=1;sourcePerimeterSpacing=0;targetPerimeterSpacing=0;rounded=0;exitX=0;exitY=1;exitDx=0;exitDy=0;" edge="1" visible="0" target="lpSecpezopNHBZ37qrY9-31" source="lpSecpezopNHBZ37qrY9-4" parent="KZ37n1IrzKlXpWWZrorU-3">
          <mxGeometry relative="1" as="geometry">
            <mxPoint x="-1182" y="-533.5" as="sourcePoint" />
          </mxGeometry>
        </mxCell>
        <mxCell id="lpSecpezopNHBZ37qrY9-31" value="关系型数据库" style="whiteSpace=wrap;html=1;shape=partialRectangle;top=0;left=0;bottom=1;right=0;points=[[0,1],[1,1]];fillColor=none;align=center;verticalAlign=bottom;routingCenterY=0.5;snapToPoint=1;recursiveResize=0;autosize=1;treeFolding=1;treeMoving=1;newEdgeStyle={&quot;edgeStyle&quot;:&quot;entityRelationEdgeStyle&quot;,&quot;startArrow&quot;:&quot;none&quot;,&quot;endArrow&quot;:&quot;none&quot;,&quot;segment&quot;:10,&quot;curved&quot;:1,&quot;sourcePerimeterSpacing&quot;:0,&quot;targetPerimeterSpacing&quot;:0};" vertex="1" visible="0" parent="KZ37n1IrzKlXpWWZrorU-3">
          <mxGeometry x="660" y="505.5" width="107" height="26" as="geometry" />
        </mxCell>
        <mxCell id="lpSecpezopNHBZ37qrY9-32" value="" style="edgeStyle=entityRelationEdgeStyle;startArrow=none;endArrow=none;segment=10;curved=1;sourcePerimeterSpacing=0;targetPerimeterSpacing=0;rounded=0;exitX=0;exitY=1;exitDx=0;exitDy=0;" edge="1" visible="0" target="lpSecpezopNHBZ37qrY9-33" source="lpSecpezopNHBZ37qrY9-4" parent="KZ37n1IrzKlXpWWZrorU-3">
          <mxGeometry relative="1" as="geometry">
            <mxPoint x="-1182" y="-533.5" as="sourcePoint" />
          </mxGeometry>
        </mxCell>
        <mxCell id="lpSecpezopNHBZ37qrY9-33" value="事务" style="whiteSpace=wrap;html=1;shape=partialRectangle;top=0;left=0;bottom=1;right=0;points=[[0,1],[1,1]];fillColor=none;align=center;verticalAlign=bottom;routingCenterY=0.5;snapToPoint=1;recursiveResize=0;autosize=1;treeFolding=1;treeMoving=1;newEdgeStyle={&quot;edgeStyle&quot;:&quot;entityRelationEdgeStyle&quot;,&quot;startArrow&quot;:&quot;none&quot;,&quot;endArrow&quot;:&quot;none&quot;,&quot;segment&quot;:10,&quot;curved&quot;:1,&quot;sourcePerimeterSpacing&quot;:0,&quot;targetPerimeterSpacing&quot;:0};" vertex="1" visible="0" parent="KZ37n1IrzKlXpWWZrorU-3">
          <mxGeometry x="684" y="541.5" width="59" height="26" as="geometry" />
        </mxCell>
        <mxCell id="lpSecpezopNHBZ37qrY9-34" value="" style="edgeStyle=entityRelationEdgeStyle;startArrow=none;endArrow=none;segment=10;curved=1;sourcePerimeterSpacing=0;targetPerimeterSpacing=0;rounded=0;exitX=0;exitY=1;exitDx=0;exitDy=0;" edge="1" visible="0" target="lpSecpezopNHBZ37qrY9-35" source="lpSecpezopNHBZ37qrY9-4" parent="KZ37n1IrzKlXpWWZrorU-3">
          <mxGeometry relative="1" as="geometry">
            <mxPoint x="-1182" y="-533.5" as="sourcePoint" />
          </mxGeometry>
        </mxCell>
        <mxCell id="lpSecpezopNHBZ37qrY9-35" value="索引" style="whiteSpace=wrap;html=1;shape=partialRectangle;top=0;left=0;bottom=1;right=0;points=[[0,1],[1,1]];fillColor=none;align=center;verticalAlign=bottom;routingCenterY=0.5;snapToPoint=1;recursiveResize=0;autosize=1;treeFolding=1;treeMoving=1;newEdgeStyle={&quot;edgeStyle&quot;:&quot;entityRelationEdgeStyle&quot;,&quot;startArrow&quot;:&quot;none&quot;,&quot;endArrow&quot;:&quot;none&quot;,&quot;segment&quot;:10,&quot;curved&quot;:1,&quot;sourcePerimeterSpacing&quot;:0,&quot;targetPerimeterSpacing&quot;:0};" vertex="1" visible="0" parent="KZ37n1IrzKlXpWWZrorU-3">
          <mxGeometry x="684" y="577.5" width="59" height="26" as="geometry" />
        </mxCell>
        <mxCell id="lpSecpezopNHBZ37qrY9-36" value="" style="edgeStyle=entityRelationEdgeStyle;startArrow=none;endArrow=none;segment=10;curved=1;sourcePerimeterSpacing=0;targetPerimeterSpacing=0;rounded=0;exitX=0;exitY=1;exitDx=0;exitDy=0;" edge="1" visible="0" target="lpSecpezopNHBZ37qrY9-37" source="lpSecpezopNHBZ37qrY9-4" parent="KZ37n1IrzKlXpWWZrorU-3">
          <mxGeometry relative="1" as="geometry">
            <mxPoint x="-1182" y="-533.5" as="sourcePoint" />
          </mxGeometry>
        </mxCell>
        <mxCell id="lpSecpezopNHBZ37qrY9-37" value="用户及权限" style="whiteSpace=wrap;html=1;shape=partialRectangle;top=0;left=0;bottom=1;right=0;points=[[0,1],[1,1]];fillColor=none;align=center;verticalAlign=bottom;routingCenterY=0.5;snapToPoint=1;recursiveResize=0;autosize=1;treeFolding=1;treeMoving=1;newEdgeStyle={&quot;edgeStyle&quot;:&quot;entityRelationEdgeStyle&quot;,&quot;startArrow&quot;:&quot;none&quot;,&quot;endArrow&quot;:&quot;none&quot;,&quot;segment&quot;:10,&quot;curved&quot;:1,&quot;sourcePerimeterSpacing&quot;:0,&quot;targetPerimeterSpacing&quot;:0};" vertex="1" visible="0" parent="KZ37n1IrzKlXpWWZrorU-3">
          <mxGeometry x="679" y="355" width="95" height="26" as="geometry" />
        </mxCell>
        <mxCell id="lpSecpezopNHBZ37qrY9-38" value="" style="edgeStyle=entityRelationEdgeStyle;startArrow=none;endArrow=none;segment=10;curved=1;sourcePerimeterSpacing=0;targetPerimeterSpacing=0;rounded=0;exitX=0;exitY=1;exitDx=0;exitDy=0;" edge="1" visible="0" target="lpSecpezopNHBZ37qrY9-39" source="lpSecpezopNHBZ37qrY9-2" parent="KZ37n1IrzKlXpWWZrorU-3">
          <mxGeometry relative="1" as="geometry">
            <mxPoint x="-961" y="-536.5" as="sourcePoint" />
          </mxGeometry>
        </mxCell>
        <mxCell id="lpSecpezopNHBZ37qrY9-39" value="字符串函数" style="whiteSpace=wrap;html=1;shape=partialRectangle;top=0;left=0;bottom=1;right=0;points=[[0,1],[1,1]];fillColor=none;align=center;verticalAlign=bottom;routingCenterY=0.5;snapToPoint=1;recursiveResize=0;autosize=1;treeFolding=1;treeMoving=1;newEdgeStyle={&quot;edgeStyle&quot;:&quot;entityRelationEdgeStyle&quot;,&quot;startArrow&quot;:&quot;none&quot;,&quot;endArrow&quot;:&quot;none&quot;,&quot;segment&quot;:10,&quot;curved&quot;:1,&quot;sourcePerimeterSpacing&quot;:0,&quot;targetPerimeterSpacing&quot;:0};" vertex="1" visible="0" parent="KZ37n1IrzKlXpWWZrorU-3">
          <mxGeometry x="732" y="499.5" width="95" height="26" as="geometry" />
        </mxCell>
        <mxCell id="lpSecpezopNHBZ37qrY9-40" value="" style="edgeStyle=entityRelationEdgeStyle;startArrow=none;endArrow=none;segment=10;curved=1;sourcePerimeterSpacing=0;targetPerimeterSpacing=0;rounded=0;exitX=0;exitY=1;exitDx=0;exitDy=0;" edge="1" visible="0" target="lpSecpezopNHBZ37qrY9-41" source="lpSecpezopNHBZ37qrY9-2" parent="KZ37n1IrzKlXpWWZrorU-3">
          <mxGeometry relative="1" as="geometry">
            <mxPoint x="-1198" y="-473.5" as="sourcePoint" />
          </mxGeometry>
        </mxCell>
        <mxCell id="lpSecpezopNHBZ37qrY9-41" value="数字函数" style="whiteSpace=wrap;html=1;shape=partialRectangle;top=0;left=0;bottom=1;right=0;points=[[0,1],[1,1]];fillColor=none;align=center;verticalAlign=bottom;routingCenterY=0.5;snapToPoint=1;recursiveResize=0;autosize=1;treeFolding=1;treeMoving=1;newEdgeStyle={&quot;edgeStyle&quot;:&quot;entityRelationEdgeStyle&quot;,&quot;startArrow&quot;:&quot;none&quot;,&quot;endArrow&quot;:&quot;none&quot;,&quot;segment&quot;:10,&quot;curved&quot;:1,&quot;sourcePerimeterSpacing&quot;:0,&quot;targetPerimeterSpacing&quot;:0};" vertex="1" visible="0" parent="KZ37n1IrzKlXpWWZrorU-3">
          <mxGeometry x="738" y="535.5" width="83" height="26" as="geometry" />
        </mxCell>
        <mxCell id="lpSecpezopNHBZ37qrY9-42" value="" style="edgeStyle=entityRelationEdgeStyle;startArrow=none;endArrow=none;segment=10;curved=1;sourcePerimeterSpacing=0;targetPerimeterSpacing=0;rounded=0;exitX=0;exitY=1;exitDx=0;exitDy=0;" edge="1" visible="0" target="lpSecpezopNHBZ37qrY9-43" source="lpSecpezopNHBZ37qrY9-2" parent="KZ37n1IrzKlXpWWZrorU-3">
          <mxGeometry relative="1" as="geometry">
            <mxPoint x="-1198" y="-473.5" as="sourcePoint" />
          </mxGeometry>
        </mxCell>
        <mxCell id="lpSecpezopNHBZ37qrY9-43" value="日期函数" style="whiteSpace=wrap;html=1;shape=partialRectangle;top=0;left=0;bottom=1;right=0;points=[[0,1],[1,1]];fillColor=none;align=center;verticalAlign=bottom;routingCenterY=0.5;snapToPoint=1;recursiveResize=0;autosize=1;treeFolding=1;treeMoving=1;newEdgeStyle={&quot;edgeStyle&quot;:&quot;entityRelationEdgeStyle&quot;,&quot;startArrow&quot;:&quot;none&quot;,&quot;endArrow&quot;:&quot;none&quot;,&quot;segment&quot;:10,&quot;curved&quot;:1,&quot;sourcePerimeterSpacing&quot;:0,&quot;targetPerimeterSpacing&quot;:0};" vertex="1" visible="0" parent="KZ37n1IrzKlXpWWZrorU-3">
          <mxGeometry x="738" y="571.5" width="83" height="26" as="geometry" />
        </mxCell>
        <mxCell id="lpSecpezopNHBZ37qrY9-44" value="" style="edgeStyle=entityRelationEdgeStyle;startArrow=none;endArrow=none;segment=10;curved=1;sourcePerimeterSpacing=0;targetPerimeterSpacing=0;rounded=0;exitX=0;exitY=1;exitDx=0;exitDy=0;" edge="1" visible="0" target="lpSecpezopNHBZ37qrY9-45" source="lpSecpezopNHBZ37qrY9-2" parent="KZ37n1IrzKlXpWWZrorU-3">
          <mxGeometry relative="1" as="geometry">
            <mxPoint x="-1198" y="-473.5" as="sourcePoint" />
          </mxGeometry>
        </mxCell>
        <mxCell id="lpSecpezopNHBZ37qrY9-45" value="高级函数" style="whiteSpace=wrap;html=1;shape=partialRectangle;top=0;left=0;bottom=1;right=0;points=[[0,1],[1,1]];fillColor=none;align=center;verticalAlign=bottom;routingCenterY=0.5;snapToPoint=1;recursiveResize=0;autosize=1;treeFolding=1;treeMoving=1;newEdgeStyle={&quot;edgeStyle&quot;:&quot;entityRelationEdgeStyle&quot;,&quot;startArrow&quot;:&quot;none&quot;,&quot;endArrow&quot;:&quot;none&quot;,&quot;segment&quot;:10,&quot;curved&quot;:1,&quot;sourcePerimeterSpacing&quot;:0,&quot;targetPerimeterSpacing&quot;:0};" vertex="1" visible="0" parent="KZ37n1IrzKlXpWWZrorU-3">
          <mxGeometry x="738" y="607.5" width="83" height="26" as="geometry" />
        </mxCell>
        <mxCell id="lpSecpezopNHBZ37qrY9-46" value="" style="edgeStyle=entityRelationEdgeStyle;startArrow=none;endArrow=none;segment=10;curved=1;sourcePerimeterSpacing=0;targetPerimeterSpacing=0;rounded=0;exitX=0;exitY=0.5;exitDx=0;exitDy=0;" edge="1" target="lpSecpezopNHBZ37qrY9-47" source="N_6x5Vvvwgn9JuhwjHZU-26" parent="KZ37n1IrzKlXpWWZrorU-3">
          <mxGeometry relative="1" as="geometry">
            <mxPoint x="-701" y="-476" as="sourcePoint" />
          </mxGeometry>
        </mxCell>
        <mxCell id="lpSecpezopNHBZ37qrY9-47" value="redis(no sql)" style="whiteSpace=wrap;html=1;shape=partialRectangle;top=0;left=0;bottom=1;right=0;points=[[0,1],[1,1]];fillColor=none;align=center;verticalAlign=bottom;routingCenterY=0.5;snapToPoint=1;recursiveResize=0;autosize=1;treeFolding=1;treeMoving=1;newEdgeStyle={&quot;edgeStyle&quot;:&quot;entityRelationEdgeStyle&quot;,&quot;startArrow&quot;:&quot;none&quot;,&quot;endArrow&quot;:&quot;none&quot;,&quot;segment&quot;:10,&quot;curved&quot;:1,&quot;sourcePerimeterSpacing&quot;:0,&quot;targetPerimeterSpacing&quot;:0};" vertex="1" parent="KZ37n1IrzKlXpWWZrorU-3">
          <mxGeometry x="1158" y="605" width="101" height="26" as="geometry" />
        </mxCell>
      </root>
    </mxGraphModel>
  </diagram>
</mxfile>
